<?xml version="1.0" encoding="UTF-8"?>
<svg xmlns="http://www.w3.org/2000/svg" xmlns:xlink="http://www.w3.org/1999/xlink" width="500px" height="500px" viewBox="0 0 500 500" version="1.1">
<g id="surface1">
<path style=" stroke:none;fill-rule:nonzero;fill:rgb(19.607843%,56.470591%,100%);fill-opacity:1;" d="M 497.699219 112.800781 C 496.898438 57 427.101562 38.5 385.601562 21.800781 C 297.199219 -4 202.898438 -4 114.300781 21.898438 C 72.800781 38.5 3.101562 55.800781 2.300781 111.601562 C -0.601562 236 52.800781 353.398438 146.101562 437 C 211.5 489.199219 244.300781 528.398438 320.101562 463.800781 C 326.898438 458.601562 327 448.300781 320.101562 443.101562 C 283 413 220.800781 371.898438 190.398438 336.5 C 146.800781 281.300781 112.601562 218 108.199219 146.800781 C 107 112.199219 224.898438 104 250 103.199219 C 275.300781 103.898438 392.699219 112.199219 391.800781 146.800781 C 387 206.199219 364.800781 262.699219 328.398438 310.199219 C 324.398438 315.898438 325.601562 323.898438 331.101562 328.101562 L 393.5 375.800781 C 413.199219 387.199219 421.699219 355.101562 431.699219 343.5 C 476.699219 271.199219 499.398438 197.398438 497.699219 112.800781 Z M 497.699219 112.800781 "/>
</g>
</svg>
