<?xml version="1.0" encoding="UTF-8"?>
<svg xmlns="http://www.w3.org/2000/svg" xmlns:xlink="http://www.w3.org/1999/xlink" width="1000px" height="260px" viewBox="0 0 1000 260" version="1.1">
<g id="surface1">
<path style=" stroke:none;fill-rule:nonzero;fill:rgb(11.372549%,11.372549%,10.588235%);fill-opacity:1;" d="M 982.300781 85 C 980 85 978 84.5 976.199219 83.5 C 974.398438 82.5 973 81.101562 972 79.398438 C 971 77.601562 970.398438 75.601562 970.398438 73.300781 C 970.398438 71 970.898438 69 972 67.199219 C 973 65.398438 974.398438 64 976.199219 63.101562 C 978 62.101562 980 61.601562 982.300781 61.601562 C 984.601562 61.601562 986.601562 62.101562 988.398438 63.101562 C 990.199219 64.101562 991.601562 65.5 992.601562 67.199219 C 993.601562 69 994.199219 71 994.199219 73.300781 C 994.199219 75.601562 993.699219 77.601562 992.601562 79.398438 C 991.601562 81.199219 990.199219 82.601562 988.398438 83.5 C 986.601562 84.5 984.5 85 982.300781 85 Z M 982.300781 82.601562 C 985.101562 82.601562 987.398438 81.699219 989.101562 80 C 990.800781 78.300781 991.699219 76 991.699219 73.199219 C 991.699219 70.398438 990.800781 68.101562 989.101562 66.398438 C 987.398438 64.699219 985.101562 63.800781 982.300781 63.800781 C 979.5 63.800781 977.199219 64.699219 975.5 66.398438 C 973.800781 68.101562 972.898438 70.398438 972.898438 73.199219 C 972.898438 76 973.800781 78.300781 975.5 80 C 977.199219 81.800781 979.5 82.601562 982.300781 82.601562 Z M 978.199219 79.398438 L 978.199219 66.898438 L 983 66.898438 C 984.398438 66.898438 985.398438 67.199219 986.199219 67.898438 C 986.898438 68.601562 987.300781 69.398438 987.300781 70.300781 C 987.300781 71 987.101562 71.601562 986.800781 72.199219 C 986.398438 72.699219 985.898438 73.199219 985.101562 73.5 L 985.101562 74 C 985.699219 74 986.199219 74.199219 986.5 74.601562 C 986.800781 75 986.898438 75.5 986.898438 76.101562 L 986.898438 79.398438 L 984.5 79.398438 L 984.5 76 C 984.5 75.199219 984.101562 74.800781 983.300781 74.800781 L 980.601562 74.800781 L 980.601562 79.398438 Z M 980.601562 72.699219 L 983 72.699219 C 983.601562 72.699219 984.101562 72.5 984.398438 72.101562 C 984.699219 71.699219 984.898438 71.300781 984.898438 70.800781 C 984.898438 70.300781 984.699219 69.800781 984.398438 69.5 C 984.101562 69.199219 983.601562 69 983 69 L 980.601562 69 Z M 980.601562 72.699219 "/>
<path style=" stroke:none;fill-rule:nonzero;fill:rgb(19.607843%,56.470591%,100%);fill-opacity:1;" d="M 215.800781 71.699219 C 215.5 48 185.800781 40.101562 168.199219 33 C 130.601562 22 90.5 22 52.800781 33 C 35.101562 40.101562 5.5 47.398438 5.101562 71.199219 C 3.898438 124.101562 26.601562 174 66.300781 209.5 C 94.101562 231.699219 108 248.398438 140.300781 220.898438 C 143.199219 218.699219 143.199219 214.300781 140.300781 212.101562 C 124.5 199.300781 98.101562 181.800781 85.199219 166.800781 C 66.699219 143.300781 52.101562 116.398438 50.199219 86.199219 C 49.699219 71.398438 99.800781 68 110.5 67.601562 C 121.300781 67.898438 171.199219 71.398438 170.800781 86.199219 C 168.699219 111.5 159.300781 135.5 143.800781 155.699219 C 142.101562 158.101562 142.601562 161.5 144.898438 163.300781 L 171.398438 183.601562 C 179.800781 188.5 183.398438 174.800781 187.601562 169.898438 C 206.800781 139 216.5 107.601562 215.800781 71.699219 Z M 215.800781 71.699219 "/>
<path style=" stroke:none;fill-rule:nonzero;fill:rgb(11.372549%,11.372549%,10.588235%);fill-opacity:1;" d="M 965.101562 92.398438 L 953.300781 92.398438 C 950.5 92.398438 948.300781 94.699219 948.300781 97.5 L 948.300781 97.699219 C 945.601562 96 942.800781 94.5 939.699219 93.300781 C 933.601562 90.898438 927.101562 89.699219 920.199219 89.699219 C 919.699219 89.699219 919.199219 89.800781 918.800781 89.800781 C 918.398438 89.800781 918 89.699219 917.5 89.699219 C 911.199219 89.699219 905.300781 90.898438 899.699219 93.300781 C 894.699219 95.5 890.398438 98.5 886.601562 102.199219 C 886.101562 102.601562 885.601562 102.898438 885.101562 103.398438 C 880.601562 107.699219 877.101562 112.800781 874.5 118.699219 C 871.898438 124.601562 870.601562 131 870.601562 137.898438 C 870.601562 144.800781 871.898438 151.199219 874.5 157.101562 C 877.101562 163 880.699219 168.101562 885.101562 172.398438 C 885.5 172.800781 886.101562 173.101562 886.5 173.5 C 890.300781 177.300781 894.699219 180.398438 899.699219 182.5 C 905.300781 184.898438 911.199219 186.101562 917.5 186.101562 C 917.898438 186.101562 918.300781 186 918.699219 186 C 919.199219 186 919.699219 186.101562 920.300781 186.101562 C 927.199219 186.101562 933.699219 184.898438 939.800781 182.5 C 942.898438 181.300781 945.699219 179.800781 948.398438 178.101562 L 948.398438 178.300781 C 948.398438 181.101562 950.699219 183.398438 953.398438 183.398438 L 965.199219 183.398438 C 968 183.398438 970.199219 181.101562 970.199219 178.300781 L 970.199219 97.5 C 970.101562 94.699219 967.898438 92.398438 965.101562 92.398438 Z M 944.898438 148.398438 C 943.5 151.699219 941.601562 154.601562 939.199219 157 C 936.800781 159.398438 933.898438 161.300781 930.699219 162.699219 C 927.398438 164.101562 923.898438 164.800781 920.199219 164.800781 C 916.5 164.800781 913.101562 164.101562 909.898438 162.699219 C 906.699219 161.300781 903.898438 159.398438 901.5 157 C 899.101562 154.601562 897.199219 151.699219 895.800781 148.398438 C 894.398438 145.101562 893.699219 141.601562 893.699219 137.898438 C 893.699219 134.199219 894.398438 130.800781 895.800781 127.5 C 897.199219 124.300781 899.101562 121.398438 901.5 119 C 903.898438 116.601562 906.699219 114.699219 909.898438 113.300781 C 913.101562 111.898438 916.5 111.199219 920.199219 111.199219 C 924 111.199219 927.5 111.898438 930.699219 113.300781 C 933.898438 114.699219 936.800781 116.601562 939.199219 119 C 941.601562 121.398438 943.5 124.300781 944.898438 127.5 C 946.300781 130.800781 947 134.199219 947 137.898438 C 947.101562 141.601562 946.300781 145.101562 944.898438 148.398438 Z M 944.898438 148.398438 "/>
<path style=" stroke:none;fill-rule:nonzero;fill:rgb(11.372549%,11.372549%,10.588235%);fill-opacity:1;" d="M 377.699219 118.699219 C 375.101562 112.800781 371.5 107.699219 367.101562 103.398438 C 362.601562 99 357.398438 95.699219 351.199219 93.300781 C 345.199219 90.898438 338.601562 89.699219 331.699219 89.699219 C 331.300781 89.699219 330.898438 89.699219 330.601562 89.800781 C 330.101562 89.800781 329.699219 89.699219 329.199219 89.699219 C 325.398438 89.699219 321.898438 90.199219 318.699219 91.101562 C 317.5 91.398438 316.398438 91.898438 315.300781 92.300781 C 314.300781 92.601562 313.300781 92.898438 312.398438 93.300781 C 306.398438 95.699219 301.101562 99 296.699219 103.398438 L 296.699219 97.398438 C 296.699219 94.601562 294.398438 92.300781 291.601562 92.300781 L 281.5 92.300781 C 278.699219 92.300781 276.398438 94.601562 276.398438 97.398438 L 276.398438 205.300781 C 276.398438 208.101562 278.699219 210.398438 281.5 210.398438 L 293.398438 210.398438 C 296.199219 210.398438 298.5 208.101562 298.5 205.300781 L 298.5 173.699219 C 302.601562 177.300781 307.199219 180.398438 312.5 182.5 C 313.199219 182.800781 313.898438 183 314.601562 183.199219 C 318.800781 185.101562 323.699219 186.101562 329.398438 186.101562 C 329.898438 186.101562 330.398438 186 330.898438 186 C 331.300781 186 331.601562 186 332 186 C 338.898438 186 345.398438 184.800781 351.5 182.398438 C 357.601562 180 362.898438 176.601562 367.398438 172.199219 C 371.800781 167.898438 375.398438 162.800781 378 156.898438 C 380.601562 151.101562 381.898438 144.601562 381.898438 137.699219 C 381.601562 131 380.398438 124.601562 377.699219 118.699219 Z M 357.199219 148.398438 C 355.800781 151.699219 353.898438 154.601562 351.5 157 C 349.101562 159.398438 346.199219 161.300781 343 162.699219 C 339.699219 164.101562 336.199219 164.800781 332.5 164.800781 C 328.800781 164.800781 325.398438 164.101562 322.199219 162.699219 C 319 161.300781 316.199219 159.398438 313.800781 157 C 311.398438 154.601562 309.5 151.699219 308.101562 148.398438 C 306.699219 145.101562 306 141.601562 306 137.898438 C 306 134.199219 306.699219 130.800781 308.101562 127.5 C 309.5 124.300781 311.398438 121.398438 313.800781 119 C 316.199219 116.601562 319 114.699219 322.199219 113.300781 C 325.398438 111.898438 328.800781 111.199219 332.5 111.199219 C 336.300781 111.199219 339.800781 111.898438 343 113.300781 C 346.199219 114.699219 349.101562 116.601562 351.5 119 C 353.898438 121.398438 355.800781 124.300781 357.199219 127.5 C 358.601562 130.800781 359.300781 134.199219 359.300781 137.898438 C 359.300781 141.601562 358.601562 145.101562 357.199219 148.398438 Z M 357.199219 148.398438 "/>
<path style=" stroke:none;fill-rule:nonzero;fill:rgb(11.372549%,11.372549%,10.588235%);fill-opacity:1;" d="M 480 103.5 C 475.5 99.199219 470.300781 95.800781 464.199219 93.398438 C 458.101562 91 451.601562 89.800781 444.699219 89.800781 C 437.800781 89.800781 431.300781 91 425.300781 93.398438 C 419.300781 95.800781 414 99.199219 409.601562 103.5 C 405.101562 107.800781 401.601562 112.898438 399 118.800781 C 396.398438 124.699219 395.101562 131.101562 395.101562 138 C 395.101562 144.898438 396.398438 151.300781 399 157.199219 C 401.601562 163.101562 405.199219 168.199219 409.601562 172.5 C 414.101562 176.898438 419.300781 180.199219 425.300781 182.699219 C 431.300781 185.101562 437.800781 186.300781 444.699219 186.300781 C 451.601562 186.300781 458.101562 185.101562 464.199219 182.699219 C 470.300781 180.300781 475.601562 176.898438 480 172.5 C 484.5 168.101562 488 163 490.601562 157.199219 C 493.199219 151.300781 494.5 144.898438 494.5 138 C 494.5 131.101562 493.199219 124.699219 490.601562 118.800781 C 488 112.800781 484.398438 107.800781 480 103.5 Z M 469.398438 148.398438 C 468 151.699219 466.101562 154.601562 463.699219 157 C 461.300781 159.398438 458.398438 161.300781 455.199219 162.699219 C 451.898438 164.101562 448.398438 164.800781 444.699219 164.800781 C 441 164.800781 437.601562 164.101562 434.398438 162.699219 C 431.199219 161.300781 428.398438 159.398438 426 157 C 423.601562 154.601562 421.699219 151.699219 420.300781 148.398438 C 418.898438 145.101562 418.199219 141.601562 418.199219 137.898438 C 418.199219 134.199219 418.898438 130.800781 420.300781 127.5 C 421.699219 124.300781 423.601562 121.398438 426 119 C 428.398438 116.601562 431.199219 114.699219 434.398438 113.300781 C 437.601562 111.898438 441 111.199219 444.699219 111.199219 C 448.5 111.199219 452 111.898438 455.199219 113.300781 C 458.398438 114.699219 461.300781 116.601562 463.699219 119 C 466.101562 121.398438 468 124.300781 469.398438 127.5 C 470.800781 130.800781 471.5 134.199219 471.5 137.898438 C 471.601562 141.601562 470.898438 145.101562 469.398438 148.398438 Z M 469.398438 148.398438 "/>
<path style=" stroke:none;fill-rule:nonzero;fill:rgb(11.372549%,11.372549%,10.588235%);fill-opacity:1;" d="M 573.101562 93.199219 C 571.300781 92.5 569.5 91.800781 567.699219 91.300781 C 564 90.300781 560 89.699219 555.800781 89.699219 C 552.800781 89.699219 549.898438 90.101562 547.398438 91 C 544.800781 91.800781 542.5 93 540.5 94.398438 C 538.5 95.800781 536.601562 97.398438 535 99.300781 C 533.398438 101.101562 532 103.101562 530.800781 105 L 530.800781 97.5 C 530.800781 94.699219 528.5 92.398438 525.699219 92.398438 L 515.398438 92.398438 C 512.601562 92.398438 510.300781 94.699219 510.300781 97.5 L 510.300781 178.5 C 510.300781 181.300781 512.601562 183.601562 515.398438 183.601562 L 527.300781 183.601562 C 530.101562 183.601562 532.398438 181.300781 532.398438 178.5 L 532.398438 134.800781 C 532.398438 131.5 533 128.5 534.199219 125.699219 C 535.398438 122.898438 537.101562 120.398438 539.199219 118.199219 C 541.300781 116.101562 543.800781 114.398438 546.699219 113.199219 C 549.5 112 552.601562 111.398438 555.800781 111.398438 C 558.601562 111.398438 561.300781 111.800781 563.800781 112.699219 C 566.101562 113.5 568.5 112.601562 569.800781 110.5 L 575.601562 100.601562 C 577 97.800781 575.898438 94.398438 573.101562 93.199219 Z M 573.101562 93.199219 "/>
<path style=" stroke:none;fill-rule:nonzero;fill:rgb(11.372549%,11.372549%,10.588235%);fill-opacity:1;" d="M 627.800781 162.199219 L 622.199219 162.199219 C 620.699219 162.199219 619.5 161.699219 618.398438 160.601562 C 617.300781 159.601562 616.800781 158.199219 616.800781 156.699219 L 616.800781 117 C 616.800781 114.199219 619.101562 111.898438 621.898438 111.898438 L 625.101562 111.898438 C 627.898438 111.898438 630.199219 109.601562 630.199219 106.800781 L 630.199219 97.398438 C 630.199219 94.601562 627.898438 92.300781 625.101562 92.300781 L 621.898438 92.300781 C 619.101562 92.300781 616.800781 90 616.800781 87.199219 L 616.800781 76.898438 C 616.800781 74.101562 614.5 71.800781 611.699219 71.800781 L 599.800781 71.800781 C 597 71.800781 594.699219 74.101562 594.699219 76.898438 L 594.699219 87.398438 C 594.699219 90.199219 592.398438 92.398438 589.601562 92.398438 L 586.398438 92.398438 C 583.601562 92.398438 581.300781 94.699219 581.300781 97.5 L 581.300781 106.898438 C 581.300781 109.699219 583.601562 112 586.398438 112 L 589.601562 112 C 592.398438 112 594.601562 114.199219 594.699219 117 L 594.699219 156.699219 C 594.699219 160.5 595.398438 164 596.898438 167.199219 C 598.398438 170.5 600.300781 173.300781 602.800781 175.699219 C 605.300781 178.101562 608.101562 180 611.5 181.398438 C 614.800781 182.800781 618.300781 183.5 622.101562 183.5 L 627.699219 183.5 C 630.5 183.5 632.800781 181.199219 632.800781 178.398438 L 632.800781 167.199219 C 632.898438 164.398438 630.601562 162.199219 627.800781 162.199219 Z M 627.800781 162.199219 "/>
<path style=" stroke:none;fill-rule:nonzero;fill:rgb(11.372549%,11.372549%,10.588235%);fill-opacity:1;" d="M 724.898438 103.699219 C 720.398438 99.398438 715.300781 96 709.300781 93.5 C 703.300781 91 697 89.699219 690.300781 89.699219 C 683.5 89.699219 677.101562 90.898438 671 93.398438 C 665 95.800781 659.699219 99.199219 655.199219 103.398438 C 650.699219 107.699219 647.101562 112.800781 644.5 118.699219 C 641.800781 124.601562 640.5 131 640.5 137.898438 C 640.5 144.800781 641.800781 151.199219 644.5 157.101562 C 647.101562 162.898438 650.699219 168 655.199219 172.398438 C 659.699219 176.699219 665 180.101562 671 182.5 C 677.101562 185 683.5 186.199219 690.300781 186.199219 C 699.199219 186.199219 707.398438 184.199219 714.800781 180.300781 C 720.300781 177.300781 725 173.699219 729 169.199219 C 731 166.800781 730.601562 163.199219 728 161.398438 L 719.601562 155.898438 C 717.601562 154.601562 714.699219 155 713.101562 156.800781 C 711 159.199219 708.300781 161.101562 705 162.699219 C 700.300781 165 695.398438 166.101562 690.300781 166.101562 C 684.699219 166.101562 679.601562 164.398438 675 161.199219 C 673 159.699219 671.199219 158 669.699219 156.101562 C 667.199219 152.800781 669.699219 148 673.898438 148 L 735.199219 148 C 736.699219 148 737.898438 147.101562 738.5 145.800781 C 738.601562 145.398438 738.699219 144.898438 738.699219 144.398438 C 738.800781 143.800781 738.898438 143.300781 738.898438 142.800781 C 739.101562 141.199219 739.199219 139.5 739.199219 137.699219 C 739.199219 131 738 124.699219 735.398438 118.800781 C 732.898438 113.199219 729.300781 108.101562 724.898438 103.699219 Z M 665.5 128.800781 C 667.398438 123.199219 670.601562 118.800781 675.101562 115.601562 C 679.601562 112.300781 684.699219 110.699219 690.398438 110.699219 C 696.199219 110.699219 701.300781 112.300781 705.800781 115.601562 C 710.300781 118.800781 713.5 123.199219 715.398438 128.800781 Z M 665.5 128.800781 "/>
<path style=" stroke:none;fill-rule:nonzero;fill:rgb(11.372549%,11.372549%,10.588235%);fill-opacity:1;" d="M 817.800781 93.199219 C 816 92.5 814.199219 91.800781 812.398438 91.300781 C 808.699219 90.300781 804.699219 89.699219 800.5 89.699219 C 797.5 89.699219 794.601562 90.101562 792.101562 91 C 789.5 91.800781 787.199219 93 785.199219 94.398438 C 783.199219 95.800781 781.300781 97.398438 779.699219 99.300781 C 778.101562 101.101562 776.699219 103.101562 775.5 105 L 775.5 97.5 C 775.5 94.699219 773.199219 92.398438 770.398438 92.398438 L 760.101562 92.398438 C 757.300781 92.398438 755 94.699219 755 97.5 L 755 178.5 C 755 181.300781 757.300781 183.601562 760.101562 183.601562 L 772 183.601562 C 774.800781 183.601562 777.101562 181.300781 777.101562 178.5 L 777.101562 134.800781 C 777.101562 131.5 777.699219 128.5 778.898438 125.699219 C 780.101562 122.898438 781.800781 120.398438 783.898438 118.199219 C 786 116.101562 788.5 114.398438 791.398438 113.199219 C 794.199219 112 797.300781 111.398438 800.5 111.398438 C 803.300781 111.398438 806 111.800781 808.5 112.699219 C 810.800781 113.5 813.199219 112.601562 814.5 110.5 L 820.300781 100.601562 C 821.800781 97.800781 820.699219 94.398438 817.800781 93.199219 Z M 817.800781 93.199219 "/>
<path style=" stroke:none;fill-rule:nonzero;fill:rgb(11.372549%,11.372549%,10.588235%);fill-opacity:1;" d="M 850.699219 92.398438 L 838.800781 92.398438 C 836 92.398438 833.699219 94.699219 833.699219 97.5 L 833.699219 178.5 C 833.699219 181.300781 836 183.601562 838.800781 183.601562 L 850.699219 183.601562 C 853.5 183.601562 855.800781 181.300781 855.800781 178.5 L 855.800781 97.5 C 855.800781 94.699219 853.5 92.398438 850.699219 92.398438 Z M 850.699219 92.398438 "/>
<path style=" stroke:none;fill-rule:nonzero;fill:rgb(11.372549%,11.372549%,10.588235%);fill-opacity:1;" d="M 844.699219 87.101562 C 848.199219 87.101562 851.101562 85.898438 853.5 83.5 C 855.898438 81.101562 857.101562 78.101562 857.101562 74.699219 C 857.101562 71.199219 855.898438 68.300781 853.5 65.898438 C 851.101562 63.5 848.101562 62.300781 844.699219 62.300781 C 841.199219 62.300781 838.300781 63.5 835.898438 65.898438 C 833.5 68.300781 832.300781 71.300781 832.300781 74.699219 C 832.300781 78.199219 833.5 81.101562 835.898438 83.5 C 838.300781 85.898438 841.300781 87.101562 844.699219 87.101562 Z M 844.699219 87.101562 "/>
</g>
</svg>
