<?xml version="1.0" encoding="UTF-8"?>
<svg version="1.1" xmlns="http://www.w3.org/2000/svg" width="1024" height="1024">
<path d="M0 0 C6.55101174 6.08011449 8.86911534 12.47258458 9.22265625 21.40234375 C8.74741027 48.93492741 -3.34699334 75.71031214 -19.15234375 97.71484375 C-20.08464225 99.02213055 -21.01693401 100.32942214 -21.94921875 101.63671875 C-22.67625 102.6525 -23.40328125 103.66828125 -24.15234375 104.71484375 C-32.36922146 100.8251975 -40.04758171 96.70150258 -47.53125 91.51171875 C-50.13176154 89.66344634 -50.13176154 89.66344634 -52.9921875 88.16796875 C-53.70503906 87.6884375 -54.41789062 87.20890625 -55.15234375 86.71484375 C-55.15234375 85.72484375 -55.15234375 84.73484375 -55.15234375 83.71484375 C-54.49234375 83.71484375 -53.83234375 83.71484375 -53.15234375 83.71484375 C-52.89839844 83.01101563 -52.64445312 82.3071875 -52.3828125 81.58203125 C-51.02506769 78.41827032 -49.33598148 75.72926272 -47.46484375 72.83984375 C-37.92816769 57.63524611 -32.23644249 41.37831838 -29.15234375 23.71484375 C-30.02632812 23.43382812 -30.9003125 23.1528125 -31.80078125 22.86328125 C-34.86681313 21.81268291 -37.79429915 20.60221033 -40.77734375 19.33984375 C-68.28847264 8.88747573 -99.33239014 9.70940317 -126.15234375 21.71484375 C-126.81234375 22.37484375 -127.47234375 23.03484375 -128.15234375 23.71484375 C-128.81234375 23.71484375 -129.47234375 23.71484375 -130.15234375 23.71484375 C-130.43939199 30.09614696 -129.50280156 35.41233337 -127.71484375 41.52734375 C-127.31712769 42.89451538 -127.31712769 42.89451538 -126.91137695 44.28930664 C-120.50302667 65.31778542 -108.93542924 82.85936768 -95.15234375 99.71484375 C-94.50523437 100.50632812 -93.858125 101.2978125 -93.19140625 102.11328125 C-90.55900889 105.37505279 -90.55900889 105.37505279 -87.15234375 107.71484375 C-87.15234375 108.37484375 -87.15234375 109.03484375 -87.15234375 109.71484375 C-86.56324219 109.98039063 -85.97414063 110.2459375 -85.3671875 110.51953125 C-83.09422021 111.74621201 -81.57441024 113.05896715 -79.71484375 114.83984375 C-74.38501475 119.62867507 -68.3010525 123.09332515 -62.15234375 126.71484375 C-60.48508179 127.71385092 -58.81819175 128.71348057 -57.15234375 129.71484375 C-57.4768587 135.06934039 -60.41856871 138.17594215 -64.15234375 141.71484375 C-70.61759405 146.85418972 -76.67369625 150.34024723 -85.15234375 149.40234375 C-100.34888719 146.04376252 -111.54041317 134.30674642 -122.15234375 123.71484375 C-123.04300537 122.85487793 -123.04300537 122.85487793 -123.95166016 121.97753906 C-128.21010577 117.83298075 -131.93909519 113.44825464 -135.52734375 108.71484375 C-136.08824707 107.97572754 -136.64915039 107.23661133 -137.22705078 106.47509766 C-155.65898706 81.80952799 -171.94869147 47.37477265 -167.58984375 15.83984375 C-165.50500575 6.76466657 -160.93356879 0.3278767 -153.08984375 -4.6328125 C-111.48819595 -28.03373939 -39.31424595 -30.57774685 0 0 Z " fill="#838589" transform="translate(256.15234375,448.28515625)"/>
<path d="M0 0 C8.50317044 8.50317044 14.30250658 19.71759361 14.44091797 31.83300781 C14.4177532 46.09588405 11.76794242 57.72071363 1.75 68.5625 C-5.47943579 75.37443038 -15.67117585 81.366169 -25.83203125 81.3828125 C-26.98348633 81.38474609 -26.98348633 81.38474609 -28.15820312 81.38671875 C-28.95162109 81.38285156 -29.74503906 81.37898437 -30.5625 81.375 C-31.73522461 81.38080078 -31.73522461 81.38080078 -32.93164062 81.38671875 C-37.64136737 81.37884953 -42.10506176 81.03139148 -46.75 80.25 C-46.75 79.59 -46.75 78.93 -46.75 78.25 C-47.8328125 77.8478125 -47.8328125 77.8478125 -48.9375 77.4375 C-51.75 76.25 -51.75 76.25 -56.75 73.25 C-57.08 85.79 -57.41 98.33 -57.75 111.25 C-59.07 111.25 -60.39 111.25 -61.75 111.25 C-62.08 111.91 -62.41 112.57 -62.75 113.25 C-62.75 112.59 -62.75 111.93 -62.75 111.25 C-63.53117187 111.49556641 -63.53117187 111.49556641 -64.328125 111.74609375 C-67.4256875 112.39058659 -70.33841094 112.34411589 -73.5 112.3125 C-74.67046875 112.30347656 -75.8409375 112.29445313 -77.046875 112.28515625 C-78.38492187 112.26775391 -78.38492187 112.26775391 -79.75 112.25 C-80.97833306 109.79333388 -80.85830772 108.23803671 -80.83229065 105.49179077 C-80.82525116 104.48775711 -80.81821167 103.48372345 -80.81095886 102.44926453 C-80.79801285 101.34371719 -80.78506683 100.23816986 -80.77172852 99.09912109 C-80.76212097 97.93815414 -80.75251343 96.77718719 -80.74261475 95.58103943 C-80.70952939 91.72844559 -80.66923338 87.8759618 -80.62890625 84.0234375 C-80.60461445 81.35828939 -80.58072045 78.69314072 -80.55735779 76.02798462 C-80.5011897 69.72042465 -80.43983711 63.41292611 -80.37663645 57.10543311 C-80.30494425 49.92539016 -80.23900949 42.74529799 -80.17356598 35.5651958 C-80.03879808 20.79339951 -79.89601504 6.02168978 -79.75 -8.75 C-72.49 -8.75 -65.23 -8.75 -57.75 -8.75 C-57.42 -6.11 -57.09 -3.47 -56.75 -0.75 C-56.25371094 -1.14832031 -55.75742187 -1.54664063 -55.24609375 -1.95703125 C-37.27291819 -15.97406191 -17.98242584 -11.4433619 0 0 Z M-50.28515625 15.765625 C-55.60876164 21.1602118 -57.82728865 28.20050257 -58.0625 35.625 C-57.86161053 43.87262874 -55.42364803 49.51749613 -49.7578125 55.55078125 C-44.26001169 60.20358933 -37.45191301 60.81697071 -30.4609375 60.6015625 C-23.47098976 59.69508513 -18.30032928 56.60332857 -13.75 51.25 C-13.193125 50.651875 -12.63625 50.05375 -12.0625 49.4375 C-8.850595 44.084325 -7.96229669 37.39647282 -8.75 31.25 C-9.50755451 28.45327479 -10.54043552 25.8792411 -11.75 23.25 C-12.12125 22.38375 -12.4925 21.5175 -12.875 20.625 C-17.34234233 14.96636638 -23.76283319 11.62003271 -30.75 10.25 C-37.91863779 10.25 -44.56346384 11.18827107 -50.28515625 15.765625 Z " fill="#838589" transform="translate(398.75,478.75)"/>
<path d="M0 0 C0.99 0.66 1.98 1.32 3 2 C3.33 -0.31 3.66 -2.62 4 -5 C3.01 -5.33 2.02 -5.66 1 -6 C3.88265149 -6.96088383 5.67662271 -7.11670941 8.66796875 -7.09765625 C9.56064453 -7.09443359 10.45332031 -7.09121094 11.37304688 -7.08789062 C12.76620117 -7.07532227 12.76620117 -7.07532227 14.1875 -7.0625 C15.12787109 -7.05798828 16.06824219 -7.05347656 17.03710938 -7.04882812 C19.35813712 -7.03704626 21.67903644 -7.02059558 24 -7 C25.19651077 -3.41046768 25.13978299 -0.14623871 25.12939453 3.58911133 C25.13202301 4.74574028 25.13202301 4.74574028 25.13470459 5.92573547 C25.13910983 8.47785689 25.1361889 11.02990911 25.1328125 13.58203125 C25.13348613 15.35698968 25.13445665 17.13194802 25.13571167 18.90690613 C25.13718701 22.63008501 25.13504008 26.35323992 25.13037109 30.07641602 C25.12468635 34.84114152 25.12794588 39.60581053 25.13394356 44.37053394 C25.13756419 48.03802411 25.13640346 51.70550099 25.13381577 55.37299156 C25.13315001 57.12920832 25.13396263 58.88542629 25.13629532 60.64164162 C25.1388451 63.10202839 25.13494797 65.56232499 25.12939453 68.02270508 C25.13141876 68.74447937 25.13344299 69.46625366 25.13552856 70.2098999 C25.11873122 74.24297336 24.7782376 78.04259492 24 82 C10.3667426 81.03644647 10.3667426 81.03644647 4 80 C3.01 76.535 3.01 76.535 2 73 C1.53851562 73.38671875 1.07703125 73.7734375 0.6015625 74.171875 C-9.55443801 82.28061849 -19.000309 84.23042243 -31.77539062 83.26611328 C-42.94840897 81.92956916 -52.62635023 76.44372721 -59.8046875 67.8359375 C-68.84855812 55.10252763 -70.95040612 40.13244752 -68.50390625 24.9140625 C-65.26172681 13.30083219 -58.16816992 2.93962182 -47.875 -3.4375 C-44.30517006 -5.40090647 -40.98033567 -7.04471944 -37 -8 C-36.1853125 -8.22945313 -35.370625 -8.45890625 -34.53125 -8.6953125 C-22.07290574 -11.60895753 -9.87764316 -7.94752898 0 0 Z M-39 18 C-44.53496561 23.85352478 -46.85707391 29.41694976 -47.0625 37.44140625 C-46.69222956 44.83524408 -44.40656202 51.56504996 -39.125 56.890625 C-33.14239419 61.4215691 -26.44467039 63.02655649 -19 63 C-12.32048853 61.68111557 -6.59107954 59.03898974 -2 54 C2.24088263 47.22826806 3.77907126 39.52597056 2.6640625 31.6171875 C0.60736329 23.95130863 -4.65661136 17.9452443 -11.4375 14 C-21.32251921 11.22525777 -30.77123429 11.05126452 -39 18 Z " fill="#848589" transform="translate(919,477)"/>
<path d="M0 0 C1.010625 0.70125 2.02125 1.4025 3.0625 2.125 C11.64627772 9.58303638 16.36128808 21.53706708 17.203125 32.69140625 C17.44125012 47.27656992 13.31099504 59.14357032 3.36328125 69.859375 C-6.55571431 78.84385362 -18.35178802 82.54979159 -31.5 82.375 C-32.37269531 82.38660156 -33.24539063 82.39820313 -34.14453125 82.41015625 C-46.22884305 82.3564482 -57.30655777 77.96324853 -66.36328125 69.89453125 C-77.03625339 58.5381673 -79.61972509 45.9903819 -79.30859375 30.8984375 C-78.7653278 19.02773833 -72.76513204 9.15638673 -64.125 1.1875 C-55.6884317 -5.65513651 -47.67450842 -8.1639339 -37 -10 C-35.84951172 -10.23396484 -35.84951172 -10.23396484 -34.67578125 -10.47265625 C-22.83883881 -12.56152845 -9.4589333 -6.75937047 0 0 Z M-48.125 16.0625 C-50.23180714 17.79016624 -50.23180714 17.79016624 -50 20 C-50.66 20 -51.32 20 -52 20 C-56.64024676 27.64397793 -56.93185037 35.23478242 -56 44 C-54.30511965 50.76892838 -49.50782699 55.01042713 -44 59 C-37.59889813 62.52060603 -30.47719963 62.45104429 -23.52734375 60.85546875 C-17.84116948 58.93078225 -13.46871438 55.69467044 -9.5625 51.1875 C-5.88183524 43.67894389 -5.14796692 36.18283896 -7 28 C-9.74006347 21.40565637 -14.90983245 15.90162765 -21.39453125 12.88671875 C-30.72349816 9.71179298 -39.8992602 10.63351173 -48.125 16.0625 Z " fill="#828488" transform="translate(499,478)"/>
<path d="M0 0 C10.76818266 11.03584303 11.9375 24.71445117 11.9375 39.375 C-20.7325 38.88 -20.7325 38.88 -54.0625 38.375 C-50.77830035 50.64819096 -50.77830035 50.64819096 -46.0625 53.375 C-46.0625 54.035 -46.0625 54.695 -46.0625 55.375 C-36.79005339 58.33654188 -28.66557353 59.39669969 -19.0625 57.375 C-19.0625 56.715 -19.0625 56.055 -19.0625 55.375 C-16.5234375 54.34960938 -16.5234375 54.34960938 -13.984375 53.32421875 C-11.79091027 52.24086117 -9.97868791 50.8884493 -8.0625 49.375 C-7.45921875 49.91769531 -6.8559375 50.46039062 -6.234375 51.01953125 C-5.43515625 51.73496094 -4.6359375 52.45039062 -3.8125 53.1875 C-3.02359375 53.89519531 -2.2346875 54.60289062 -1.421875 55.33203125 C0.6391833 57.11668935 2.73355523 58.77259062 4.9375 60.375 C4.28069988 65.62940095 2.28324822 67.40813453 -1.6796875 70.66796875 C-10.66950268 77.10821339 -19.91349055 79.75871214 -30.875 79.6875 C-31.76356689 79.68258545 -32.65213379 79.6776709 -33.56762695 79.67260742 C-39.82155634 79.56063274 -45.32378415 79.02942475 -51.0625 76.375 C-51.81273437 76.04628906 -52.56296875 75.71757813 -53.3359375 75.37890625 C-65.61808001 69.32167215 -71.85559238 59.12111168 -76.4375 46.625 C-79.20723843 32.91907787 -77.2568344 18.25905759 -69.58203125 6.55078125 C-69.08058594 5.83277344 -68.57914063 5.11476563 -68.0625 4.375 C-67.340625 3.323125 -66.61875 2.27125 -65.875 1.1875 C-47.83532133 -16.85217867 -18.61808539 -17.23384113 0 0 Z M-46.95703125 11.95703125 C-49.86340251 15.20283273 -51.79029203 17.88356857 -52.0625 22.375 C-51.4025 22.375 -50.7425 22.375 -50.0625 22.375 C-49.7325 22.045 -49.4025 21.715 -49.0625 21.375 C-49.0625 21.705 -49.0625 22.035 -49.0625 22.375 C-37.1825 22.375 -25.3025 22.375 -13.0625 22.375 C-14.23632424 15.33205459 -15.95621266 13.93311898 -21.1875 9.625 C-29.11944308 6.1763291 -40.07115349 6.20696838 -46.95703125 11.95703125 Z " fill="#818286" transform="translate(731.0625,480.625)"/>
<path d="M0 0 C0.66 0.66 1.32 1.32 2 2 C1.34 2 0.68 2 0 2 C0.2475 3.918125 0.2475 3.918125 0.5 5.875 C1.1618825 11.00458934 1 15.68388851 1 21 C7.6 21.33 14.2 21.66 21 22 C21.85129323 26.25646616 22.19550526 29.87787405 22.25 34.1875 C22.27578125 35.41855469 22.3015625 36.64960938 22.328125 37.91796875 C22.21984375 38.93503906 22.1115625 39.95210938 22 41 C18.49081164 43.33945891 17.12601003 43.18890962 13 43.0625 C9.57036409 42.96583134 7.27028587 42.90990471 4 44 C3.34 44 2.68 44 2 44 C1.90108923 49.76573685 1.82851155 55.5309794 1.78027344 61.29736328 C1.76016368 63.25871381 1.73287182 65.22000444 1.69824219 67.18115234 C1.64969579 70.00112695 1.62702514 72.82030865 1.609375 75.640625 C1.58872986 76.51680481 1.56808472 77.39298462 1.54681396 78.29571533 C1.51220448 83.26749749 1.51220448 83.26749749 3.87524414 87.53442383 C7.28820966 89.88855827 9.8156603 90.13905203 13.89453125 89.66015625 C14.85746094 89.46292969 15.82039062 89.26570312 16.8125 89.0625 C17.78832031 88.86785156 18.76414062 88.67320312 19.76953125 88.47265625 C20.50558594 88.31667969 21.24164062 88.16070313 22 88 C23.10087193 95.01805857 23.09733092 101.90565767 23 109 C15.45561335 113.35253076 4.63345344 113.10875495 -3.69921875 111.46875 C-10.51825222 109.33852562 -15.37969179 106.64235305 -18.8125 100.1875 C-22.08532416 93.52534338 -22.15398793 86.49177001 -22.28125 79.21484375 C-22.29965942 78.39552872 -22.31806885 77.57621368 -22.33703613 76.73207092 C-22.41504004 73.25599075 -22.48329423 69.77973646 -22.55224609 66.3034668 C-22.60425253 63.75300413 -22.66137854 61.20269048 -22.71875 58.65234375 C-22.73232544 57.87406723 -22.74590088 57.09579071 -22.7598877 56.29393005 C-22.78496399 55.18731773 -22.78496399 55.18731773 -22.81054688 54.05834961 C-22.82307495 53.41772079 -22.83560303 52.77709198 -22.84851074 52.11705017 C-23.0435604 49.39124689 -23.5507349 46.69559061 -24 44 C-30.93 43.505 -30.93 43.505 -38 43 C-38 36.07 -38 29.14 -38 22 C-37.01 22 -36.02 22 -35 22 C-34.67 21.34 -34.34 20.68 -34 20 C-34 20.66 -34 21.32 -34 22 C-30.7 21.67 -27.4 21.34 -24 21 C-22.84429296 17.53287889 -22.67164707 14.4585044 -22.4375 10.8125 C-22.35371094 9.54019531 -22.26992188 8.26789063 -22.18359375 6.95703125 C-22.12300781 5.98121094 -22.06242188 5.00539063 -22 4 C-6.45669291 -0.62992126 -6.45669291 -0.62992126 0 0 Z " fill="#86878B" transform="translate(626,448)"/>
<path d="M0 0 C0 7.59 0 15.18 0 23 C-2.97 23 -5.94 23 -9 23 C-14.91641781 24.06391724 -19.29872928 26.13547277 -23 31 C-26.6744371 37.47376555 -27.59949743 43.13981442 -27.609375 50.50390625 C-27.63417938 51.94974342 -27.63417938 51.94974342 -27.65948486 53.42478943 C-27.70764983 56.4707598 -27.72926561 59.51623211 -27.75 62.5625 C-27.77818603 64.64130068 -27.8081171 66.72007847 -27.83984375 68.79882812 C-27.91340025 73.86584435 -27.96316689 78.93258917 -28 84 C-27.34 84.33 -26.68 84.66 -26 85 C-26.66 85 -27.32 85 -28 85 C-28.268125 85.804375 -28.53625 86.60875 -28.8125 87.4375 C-29.204375 88.283125 -29.59625 89.12875 -30 90 C-31.485 90.495 -31.485 90.495 -33 91 C-33.495 90.01 -33.495 90.01 -34 89 C-39.28 88.67 -44.56 88.34 -50 88 C-50 59.29 -50 30.58 -50 1 C-42.74 1 -35.48 1 -28 1 C-27.67 3.64 -27.34 6.28 -27 9 C-26.34 9 -25.68 9 -25 9 C-24.75894531 8.39671875 -24.51789062 7.7934375 -24.26953125 7.171875 C-19.3939773 -1.16907267 -8.3088565 -0.44196045 0 0 Z " fill="#86888C" transform="translate(577,469)"/>
<path d="M0 0 C1 1 1 1 1.11352539 3.22485352 C1.10828857 4.18319092 1.10305176 5.14152832 1.09765625 6.12890625 C1.09443359 7.16337891 1.09121094 8.19785156 1.08789062 9.26367188 C1.07532227 10.8965918 1.07532227 10.8965918 1.0625 12.5625 C1.05798828 13.65498047 1.05347656 14.74746094 1.04882812 15.87304688 C1.03699826 18.58208495 1.02051543 21.29101599 1 24 C0.41049561 23.98767334 -0.17900879 23.97534668 -0.78637695 23.96264648 C-7.6158626 23.87960686 -14.3617549 24.02939163 -19.89453125 28.546875 C-24.96696596 34.12531902 -26.21416949 39.86429493 -26.625 47.3125 C-26.66367187 48.00110107 -26.70234375 48.68970215 -26.7421875 49.39916992 C-27.03818035 55.25361769 -27.033017 61.09597121 -26.98095703 66.95605469 C-26.94748636 72.6889113 -27.31199385 78.31166345 -28 84 C-27.34 84.33 -26.68 84.66 -26 85 C-26 85.99 -26 86.98 -26 88 C-26.66 88 -27.32 88 -28 88 C-28.33 88.66 -28.66 89.32 -29 90 C-35.6 90 -42.2 90 -49 90 C-49 60.96 -49 31.92 -49 2 C-41.74 2 -34.48 2 -27 2 C-27 5.3 -27 8.6 -27 12 C-26.319375 11.0925 -25.63875 10.185 -24.9375 9.25 C-18.75555193 1.9078544 -9.38660049 -0.70399504 0 0 Z " fill="#88898D" transform="translate(802,468)"/>
<path d="M0 0 C0 28.71 0 57.42 0 87 C-1.98 87.99 -1.98 87.99 -4 89 C-4 88.34 -4 87.68 -4 87 C-5.485 87.495 -5.485 87.495 -7 88 C-9.39870613 87.91343435 -11.79537281 87.76001509 -14.1875 87.5625 C-15.45980469 87.46066406 -16.73210938 87.35882812 -18.04296875 87.25390625 C-19.50669922 87.12822266 -19.50669922 87.12822266 -21 87 C-21.92226545 80.00993596 -22.1178422 73.20530566 -22.0625 66.16015625 C-22.05871338 65.03919052 -22.05492676 63.91822479 -22.05102539 62.76329041 C-22.03485379 58.01133538 -22.00690512 53.25946981 -21.97949219 48.50756836 C-21.96111825 45.01676249 -21.94737342 41.52599629 -21.9375 38.03515625 C-21.93266602 36.34527084 -21.93266602 36.34527084 -21.92773438 34.62124634 C-21.9320778 27.21211719 -22.15171782 19.84892497 -22.73217773 12.46168518 C-23.0045247 8.77296412 -22.93514508 5.58861926 -22 2 C-22.66 1.67 -23.32 1.34 -24 1 C-15.34385347 -2.06571856 -10.26797274 -0.6417483 0 0 Z " fill="#888A8E" transform="translate(840,470)"/>
<path d="M0 0 C2.75921565 3.92979199 3.34006827 7.17678353 3.0625 11.9375 C1.79974492 15.87432468 0.46733097 17.5797424 -2.625 20.3125 C-6.66885838 22.29627958 -9.52466429 22.65237939 -13.9375 21.9375 C-19.08825357 20.15454684 -21.53735587 17.8301015 -23.9375 12.9375 C-24.58767135 8.84142049 -24.83683663 6.56139052 -22.83203125 2.94140625 C-20.34819985 -0.26160421 -18.27087684 -1.90815887 -14.5625 -3.625 C-8.72015755 -4.3301103 -4.81778169 -3.38269778 0 0 Z " fill="#818386" transform="translate(839.9375,438.0625)"/>
<path d="M0 0 C-1.32 0.33 -2.64 0.66 -4 1 C-4 28.72 -4 56.44 -4 85 C2.27 85 8.54 85 15 85 C15 57.28 15 29.56 15 1 C10.38 1 5.76 1 1 1 C1 0.67 1 0.34 1 0 C5.95 0 10.9 0 16 0 C16 28.71 16 57.42 16 87 C14.02 87.99 14.02 87.99 12 89 C12 88.34 12 87.68 12 87 C10.515 87.495 10.515 87.495 9 88 C6.60129387 87.91343435 4.20462719 87.76001509 1.8125 87.5625 C0.54019531 87.46066406 -0.73210938 87.35882812 -2.04296875 87.25390625 C-3.50669922 87.12822266 -3.50669922 87.12822266 -5 87 C-5.92226545 80.00993596 -6.1178422 73.20530566 -6.0625 66.16015625 C-6.05871338 65.03919052 -6.05492676 63.91822479 -6.05102539 62.76329041 C-6.03485379 58.01133538 -6.00690512 53.25946981 -5.97949219 48.50756836 C-5.96111825 45.01676249 -5.94737342 41.52599629 -5.9375 38.03515625 C-5.93266602 36.34527084 -5.93266602 36.34527084 -5.92773438 34.62124634 C-5.9320778 27.21211719 -6.15171782 19.84892497 -6.73217773 12.46168518 C-7.0045247 8.77296412 -6.93514508 5.58861926 -6 2 C-6.66 1.67 -7.32 1.34 -8 1 C-5.07175348 0.02391783 -3.04386724 -0.08226668 0 0 Z " fill="#484A4C" transform="translate(824,470)"/>
<path d="M0 0 C5.94 0 11.88 0 18 0 C18 0.33 18 0.66 18 1 C12.39 1 6.78 1 1 1 C1 28.72 1 56.44 1 85 C7.27 85 13.54 85 20 85 C19.94779297 80.40964844 19.94779297 80.40964844 19.89453125 75.7265625 C19.87107773 72.73454723 19.85289419 69.74254254 19.83520508 66.75048828 C19.82019808 64.68468579 19.799786 62.61891472 19.77368164 60.55322266 C19.73694039 57.56925662 19.72019236 54.58571493 19.70703125 51.6015625 C19.69154739 50.69072906 19.67606354 49.77989563 19.66011047 48.84146118 C19.65770078 39.48144774 21.50368653 31.45713576 28.125 24.62890625 C34.23591667 19.32004739 40.33034732 19.71593879 48 20 C48.33 14.06 48.66 8.12 49 2 C49.33 2 49.66 2 50 2 C50 8.6 50 15.2 50 22 C47.03 22 44.06 22 41 22 C34.5700911 22.92358473 30.23864383 24.89715639 26.15625 29.98828125 C23.33068273 34.90438647 22.68357491 39.71815125 22.375 45.3125 C22.33632813 46.00110107 22.29765625 46.68970215 22.2578125 47.39916992 C21.96181965 53.25361769 21.966983 59.09597121 22.01904297 64.95605469 C22.05251364 70.6889113 21.68800615 76.31166345 21 82 C21.66 82.33 22.32 82.66 23 83 C23 83.99 23 84.98 23 86 C22.34 86 21.68 86 21 86 C20.67 86.66 20.34 87.32 20 88 C13.4 88 6.8 88 0 88 C0 58.96 0 29.92 0 0 Z " fill="#4F5153" transform="translate(753,470)"/>
<path d="M0 0 C0.66 0.66 1.32 1.32 2 2 C1.34 2 0.68 2 0 2 C0.2475 3.918125 0.2475 3.918125 0.5 5.875 C1.1618825 11.00458934 1 15.68388851 1 21 C7.6 21.33 14.2 21.66 21 22 C21.85129323 26.25646616 22.19550526 29.87787405 22.25 34.1875 C22.27578125 35.41855469 22.3015625 36.64960938 22.328125 37.91796875 C22.21984375 38.93503906 22.1115625 39.95210938 22 41 C18.49081164 43.33945891 17.12601003 43.18890962 13 43.0625 C9.57036409 42.96583134 7.27028587 42.90990471 4 44 C3.34 44 2.68 44 2 44 C1.95048901 49.74746449 1.9142277 55.49480427 1.89013672 61.24243164 C1.88009147 63.19688073 1.86645283 65.15131484 1.84912109 67.10571289 C1.82480797 69.91816917 1.81350203 72.73042639 1.8046875 75.54296875 C1.79436493 76.41398727 1.78404236 77.2850058 1.77340698 78.18241882 C1.77259776 82.57760348 1.93083445 86.00128388 4 90 C0.43752856 86.78228386 -0.8387213 84.73263127 -1.12025452 79.96246338 C-1.11803391 79.24298523 -1.11581329 78.52350708 -1.11352539 77.78222656 C-1.11344986 76.96167786 -1.11337433 76.14112915 -1.11329651 75.29571533 C-1.10813522 74.41953552 -1.10297394 73.54335571 -1.09765625 72.640625 C-1.0962413 71.73624695 -1.09482635 70.8318689 -1.09336853 69.90008545 C-1.08777911 67.01668973 -1.07522853 64.13337218 -1.0625 61.25 C-1.05748363 59.29296987 -1.05292096 57.33593853 -1.04882812 55.37890625 C-1.0386648 50.58588329 -1.01908728 45.79302896 -1 41 C5.93 41 12.86 41 20 41 C20 35.06 20 29.12 20 23 C13.07 23 6.14 23 -1 23 C-1 15.74 -1 8.48 -1 1 C-2.835625 1.474375 -4.67125 1.94875 -6.5625 2.4375 C-11.09351795 3.60843722 -15.31647501 4.330925 -20 5 C-20 10.94 -20 16.88 -20 23 C-24.62 23 -29.24 23 -34 23 C-34 22.67 -34 22.34 -34 22 C-30.7 21.67 -27.4 21.34 -24 21 C-22.84429296 17.53287889 -22.67164707 14.4585044 -22.4375 10.8125 C-22.35371094 9.54019531 -22.26992188 8.26789063 -22.18359375 6.95703125 C-22.12300781 5.98121094 -22.06242188 5.00539063 -22 4 C-6.45669291 -0.62992126 -6.45669291 -0.62992126 0 0 Z " fill="#595A5B" transform="translate(626,448)"/>
<path d="M0 0 C7.26 0 14.52 0 22 0 C22.33 2.64 22.66 5.28 23 8 C23.66 8 24.32 8 25 8 C24.1875 10.4375 24.1875 10.4375 23 13 C22.01 13.33 21.02 13.66 20 14 C20 9.71 20 5.42 20 1 C13.73 1 7.46 1 1 1 C1 28.72 1 56.44 1 85 C7.27 85 13.54 85 20 85 C19.97679687 82.22851562 19.95359375 79.45703125 19.9296875 76.6015625 C19.91404538 73.8875372 19.90192666 71.17351711 19.89013672 68.45947266 C19.88014106 66.58770462 19.86654003 64.71595195 19.84912109 62.84423828 C19.82458732 60.13830754 19.81345232 57.43258501 19.8046875 54.7265625 C19.79436493 53.90322418 19.78404236 53.07988586 19.77340698 52.2315979 C19.77228456 46.28689678 20.65035555 40.78412218 22 35 C22.84877477 37.92633666 23.10038047 40.45195527 23.02172852 43.49316406 C22.99158409 44.81408051 22.99158409 44.81408051 22.96083069 46.16168213 C22.92027809 47.57438385 22.92027809 47.57438385 22.87890625 49.015625 C22.85529526 49.98659119 22.83168427 50.95755737 22.80735779 51.95794678 C22.73085945 55.0554517 22.64677543 58.15269787 22.5625 61.25 C22.50926548 63.35154989 22.45652518 65.45311236 22.40429688 67.5546875 C22.27526296 72.70328848 22.13942602 77.85167039 22 83 C22.66 83.33 23.32 83.66 24 84 C23.34 84 22.68 84 22 84 C21.731875 84.804375 21.46375 85.60875 21.1875 86.4375 C20.795625 87.283125 20.40375 88.12875 20 89 C18.515 89.495 18.515 89.495 17 90 C16.505 89.01 16.505 89.01 16 88 C10.72 87.67 5.44 87.34 0 87 C0 58.29 0 29.58 0 0 Z " fill="#636467" transform="translate(527,470)"/>
<path d="M0 0 C0.33 0 0.66 0 1 0 C1 38.94 1 77.88 1 118 C7.27 118 13.54 118 20 118 C20 104.47 20 90.94 20 77 C21.32 77.33 22.64 77.66 24 78 C24.33 78.99 24.66 79.98 25 81 C24.34 81 23.68 81 23 81 C22.67 93.54 22.34 106.08 22 119 C20.68 119 19.36 119 18 119 C17.67 119.66 17.34 120.32 17 121 C17 120.34 17 119.68 17 119 C16.21882813 119.24556641 16.21882813 119.24556641 15.421875 119.49609375 C12.3243125 120.14058659 9.41158906 120.09411589 6.25 120.0625 C5.07953125 120.05347656 3.9090625 120.04445313 2.703125 120.03515625 C1.36507813 120.01775391 1.36507813 120.01775391 0 120 C-1.22384942 117.55230117 -1.10842703 116.01536294 -1.08229065 113.27975464 C-1.07525116 112.28413513 -1.06821167 111.28851562 -1.06095886 110.26272583 C-1.04801285 109.16652924 -1.03506683 108.07033264 -1.02172852 106.94091797 C-1.01212097 105.78970459 -1.00251343 104.63849121 -0.99261475 103.45239258 C-0.95953007 99.63226383 -0.9192338 95.8122461 -0.87890625 91.9921875 C-0.85461439 89.34946082 -0.83077037 86.70672998 -0.80735779 84.06399536 C-0.7511903 77.80955897 -0.6898376 71.55518454 -0.62663645 65.3008157 C-0.55494359 58.18123141 -0.48900916 51.06159747 -0.42356598 43.94195342 C-0.28879906 29.29457188 -0.14677602 14.64726605 0 0 Z " fill="#515354" transform="translate(319,471)"/>
<path d="M0 0 C0.66 0 1.32 0 2 0 C2 6.27 2 12.54 2 19 C6.89153471 18.9604321 6.89153471 18.9604321 11.78295898 18.90991211 C13.52221717 18.90275087 15.26145304 18.94975298 17 19 C18 20 18 20 18.12025452 22.01844788 C18.1169236 23.3474839 18.1169236 23.3474839 18.11352539 24.70336914 C18.11344986 25.70433121 18.11337433 26.70529327 18.11329651 27.73658752 C18.10813522 28.8251152 18.10297394 29.91364288 18.09765625 31.03515625 C18.0962413 32.14354355 18.09482635 33.25193085 18.09336853 34.39390564 C18.08775033 37.95013069 18.07519475 41.50629383 18.0625 45.0625 C18.05748734 47.46679597 18.05292403 49.87109292 18.04882812 52.27539062 C18.03777499 58.18361504 18.02101917 64.0918031 18 70 C15.70468742 65.88332413 15.67023125 62.13144289 15.62109375 57.5078125 C15.60409927 56.68425262 15.5871048 55.86069275 15.56959534 55.01217651 C15.51656145 52.38319544 15.47624296 49.75422739 15.4375 47.125 C15.3934064 44.50299691 15.3465188 41.88110873 15.29469299 39.25924683 C15.26303674 37.6298793 15.23605673 36.00041207 15.21446228 34.37088013 C15.20097244 33.62345551 15.1874826 32.87603088 15.17358398 32.10595703 C15.16407211 31.4562796 15.15456024 30.80660217 15.14476013 30.13723755 C14.95965705 27.40437697 14.45030891 24.70185343 14 22 C7.07 21.505 7.07 21.505 0 21 C0 14.07 0 7.14 0 0 Z " fill="#66676A" transform="translate(588,470)"/>
<path d="M0 0 C7.26 0 14.52 0 22 0 C22.33 2.64 22.66 5.28 23 8 C23.66 8 24.32 8 25 8 C24.1875 10.4375 24.1875 10.4375 23 13 C22.01 13.33 21.02 13.66 20 14 C20 9.71 20 5.42 20 1 C13.73 1 7.46 1 1 1 C1 25.09 1 49.18 1 74 C0.67 74 0.34 74 0 74 C0 49.58 0 25.16 0 0 Z " fill="#484A4B" transform="translate(527,470)"/>
<path d="M0 0 C0.89267578 0.00322266 1.78535156 0.00644531 2.70507812 0.00976562 C4.09823242 0.02233398 4.09823242 0.02233398 5.51953125 0.03515625 C6.45990234 0.03966797 7.40027344 0.04417969 8.36914062 0.04882812 C10.69016837 0.06060999 13.01106769 0.07706067 15.33203125 0.09765625 C16.50779454 3.62494613 16.42153317 6.7509189 16.35375977 10.41479492 C16.34415222 11.15650436 16.33454468 11.89821381 16.324646 12.66239929 C16.29166966 15.11357151 16.25133218 17.56456474 16.2109375 20.015625 C16.18663505 21.71526967 16.16279155 23.41492095 16.13938904 25.11457825 C16.07656058 29.58791647 16.0074904 34.06113748 15.93713379 38.53436279 C15.86643919 43.09902611 15.80162896 47.66377252 15.73632812 52.22851562 C15.60733174 61.18498716 15.4717433 70.14134591 15.33203125 79.09765625 C15.00203125 79.09765625 14.67203125 79.09765625 14.33203125 79.09765625 C14.00203125 53.68765625 13.67203125 28.27765625 13.33203125 2.09765625 C7.72203125 1.76765625 2.11203125 1.43765625 -3.66796875 1.09765625 C-3.66796875 4.06765625 -3.66796875 7.03765625 -3.66796875 10.09765625 C-4.32796875 9.76765625 -4.98796875 9.43765625 -5.66796875 9.09765625 C-5.33796875 6.78765625 -5.00796875 4.47765625 -4.66796875 2.09765625 C-5.65796875 1.76765625 -6.64796875 1.43765625 -7.66796875 1.09765625 C-4.78531726 0.13677242 -2.99134604 -0.01905316 0 0 Z " fill="#393B3C" transform="translate(927.66796875,469.90234375)"/>
<path d="M0 0 C0.66 0.66 1.32 1.32 2 2 C1.34 2 0.68 2 0 2 C0.2475 3.918125 0.2475 3.918125 0.5 5.875 C1.07041736 10.9284158 1.09543708 15.92062649 1 21 C0.67 21 0.34 21 0 21 C-0.88021369 14.28837062 -1.11381955 7.76594019 -1 1 C-1.78503906 1.20496094 -2.57007813 1.40992188 -3.37890625 1.62109375 C-4.95478516 2.02521484 -4.95478516 2.02521484 -6.5625 2.4375 C-7.59503906 2.70433594 -8.62757813 2.97117187 -9.69140625 3.24609375 C-13.08987389 4.02047894 -16.54945372 4.50706482 -20 5 C-20 10.94 -20 16.88 -20 23 C-24.62 23 -29.24 23 -34 23 C-34 22.67 -34 22.34 -34 22 C-30.7 21.67 -27.4 21.34 -24 21 C-22.84429296 17.53287889 -22.67164707 14.4585044 -22.4375 10.8125 C-22.35371094 9.54019531 -22.26992188 8.26789063 -22.18359375 6.95703125 C-22.12300781 5.98121094 -22.06242188 5.00539063 -22 4 C-6.45669291 -0.62992126 -6.45669291 -0.62992126 0 0 Z " fill="#636466" transform="translate(626,448)"/>
<path d="M0 0 C-4.15969376 0 -6.8166553 -1.86948931 -10.4296875 -3.80859375 C-18.3249317 -7.46824342 -29.58482069 -7.22594616 -38.01953125 -5.31640625 C-45.79960106 -2.36365535 -52.66320664 2.68527008 -59 8 C-55.51099371 0.20005805 -47.70593913 -4.04571235 -40 -7 C-25.5627014 -11.72433341 -11.92714082 -9.93928401 0 0 Z " fill="#585A5B" transform="translate(919,477)"/>
<path d="M0 0 C0.33 0 0.66 0 1 0 C1 6.6 1 13.2 1 20 C-1.97 20 -4.94 20 -8 20 C-14.15644696 20.88430497 -18.93087854 22.71570353 -22.75 27.75 C-25.2348546 32.22273828 -26.62982103 37.09153532 -28 42 C-29.5783495 37.26495151 -27.93492758 33.47948988 -26 29 C-22.40948228 23.48466866 -18.47391855 19.72637828 -12 18 C-8.29283016 17.78429188 -4.72057226 17.86220103 -1 18 C-0.67 12.06 -0.34 6.12 0 0 Z " fill="#5E5F61" transform="translate(802,472)"/>
<path d="M0 0 C0 2.97 0 5.94 0 9 C5.94 9 11.88 9 18 9 C18 7.02 18 5.04 18 3 C20.3610284 6.61098461 19.80632176 8.88381202 19 13 C5.3667426 12.03644647 5.3667426 12.03644647 -1 11 C-1.66 8.69 -2.32 6.38 -3 4 C-3.99 4 -4.98 4 -6 4 C-2.25 0 -2.25 0 0 0 Z " fill="#6B6B6D" transform="translate(924,546)"/>
<path d="M0 0 C0.33 0 0.66 0 1 0 C1 3.3 1 6.6 1 10 C1.66 10 2.32 10 3 10 C4.125 15.625 4.125 15.625 3 19 C5.45470679 28.99932029 11.93372568 36.90110966 20 43 C19.01 43.495 19.01 43.495 18 44 C8.87839052 37.0580998 1.68289916 27.57772295 0 16 C-0.29761463 10.6651273 -0.17878184 5.336969 0 0 Z " fill="#565759" transform="translate(420,508)"/>
<path d="M0 0 C3.63 0 7.26 0 11 0 C11 7.59 11 15.18 11 23 C8.03 23 5.06 23 2 23 C-0.98496527 23.38424313 -0.98496527 23.38424313 -3.5625 24 C-4.40941406 24.185625 -5.25632812 24.37125 -6.12890625 24.5625 C-7.05509766 24.7790625 -7.05509766 24.7790625 -8 25 C-2.40655378 20.40538347 1.44066345 21 9 21 C9 14.4 9 7.8 9 1 C6.03 1 3.06 1 0 1 C0 0.67 0 0.34 0 0 Z " fill="#5C5E60" transform="translate(566,469)"/>
<path d="M0 0 C0.66 0 1.32 0 2 0 C2 6.27 2 12.54 2 19 C8.27 19 14.54 19 21 19 C21.33 19.66 21.66 20.32 22 21 C20.02 21.99 20.02 21.99 18 23 C18 22.34 18 21.68 18 21 C17.01 21.33 16.02 21.66 15 22 C12.60129387 21.91343435 10.20462719 21.76001509 7.8125 21.5625 C6.54019531 21.46066406 5.26789062 21.35882812 3.95703125 21.25390625 C2.98121094 21.17011719 2.00539063 21.08632813 1 21 C0.06145994 13.96094956 -0.10808032 7.09727428 0 0 Z " fill="#636466" transform="translate(818,536)"/>
<path d="M0 0 C0.33 0 0.66 0 1 0 C1 3.63 1 7.26 1 11 C7.6 11 14.2 11 21 11 C20.67 12.32 20.34 13.64 20 15 C19.01 15.33 18.02 15.66 17 16 C16.67 15.34 16.34 14.68 16 14 C13.28553021 13.68758545 10.66090639 13.48663408 7.9375 13.375 C6.79958008 13.31699219 6.79958008 13.31699219 5.63867188 13.2578125 C3.75952805 13.16326438 1.87979664 13.08053244 0 13 C0 8.71 0 4.42 0 0 Z " fill="#525254" transform="translate(527,544)"/>
<path d="M0 0 C2.97 0.495 2.97 0.495 6 1 C3.31806996 2.40763659 0.70119463 3.49699581 -2.1875 4.40234375 C-2.96867187 4.65306641 -3.74984375 4.90378906 -4.5546875 5.16210938 C-6.18377422 5.6786808 -7.81398877 6.19170895 -9.4453125 6.70117188 C-13.51577365 8.0143322 -16.67690375 9.21690689 -20 12 C-20.66 12 -21.32 12 -22 12 C-22 16.29 -22 20.58 -22 25 C-24.28062828 21.57905758 -24.21925007 20.31812778 -24.125 16.3125 C-24.10695313 15.31863281 -24.08890625 14.32476562 -24.0703125 13.30078125 C-24.04710938 12.54152344 -24.02390625 11.78226562 -24 11 C-21.7941576 9.86988348 -19.58554973 8.74584212 -17.375 7.625 C-16.75753906 7.30789063 -16.14007813 6.99078125 -15.50390625 6.6640625 C-10.37468579 4.07245637 -5.85305899 2 0 2 C0 1.34 0 0.68 0 0 Z " fill="#545556" transform="translate(148,460)"/>
<path d="M0 0 C0.515625 0.268125 1.03125 0.53625 1.5625 0.8125 C2.366875 1.204375 3.17125 1.59625 4 2 C5.03125 2.515625 6.0625 3.03125 7.125 3.5625 C14.06931596 6.42887723 19.95855243 6.66358423 27 4 C27.9075 3.608125 28.815 3.21625 29.75 2.8125 C30.4925 2.544375 31.235 2.27625 32 2 C32.66 2.33 33.32 2.66 34 3 C28.73030891 7.63732816 22.42878787 8.4528218 15.6328125 8.328125 C9.88796461 7.61214989 4.77624365 5.18416243 0 2 C0 1.34 0 0.68 0 0 Z " fill="#5D5E60" transform="translate(879,533)"/>
<path d="M0 0 C0.66 0 1.32 0 2 0 C2.33 6.27 2.66 12.54 3 19 C7.29 19.33 11.58 19.66 16 20 C16 20.33 16 20.66 16 21 C10.72 21 5.44 21 0 21 C0 14.07 0 7.14 0 0 Z " fill="#6C6D6F" transform="translate(588,470)"/>
<path d="M0 0 C-1.32 0.33 -2.64 0.66 -4 1 C-4 8.92 -4 16.84 -4 25 C-4.66 25 -5.32 25 -6 25 C-6.1954384 22.10450497 -6.38161395 19.20891002 -6.5625 16.3125 C-6.61857422 15.49587891 -6.67464844 14.67925781 -6.73242188 13.83789062 C-6.98341571 9.70485877 -7.11127743 6.04175718 -6 2 C-6.66 1.67 -7.32 1.34 -8 1 C-5.07175348 0.02391783 -3.04386724 -0.08226668 0 0 Z " fill="#616264" transform="translate(824,470)"/>
<path d="M0 0 C7.26 0 14.52 0 22 0 C22.33 2.64 22.66 5.28 23 8 C23.66 8 24.32 8 25 8 C24.1875 10.4375 24.1875 10.4375 23 13 C22.01 13.33 21.02 13.66 20 14 C20 9.71 20 5.42 20 1 C13.4 1.33 6.8 1.66 0 2 C0 1.34 0 0.68 0 0 Z " fill="#626365" transform="translate(527,470)"/>
<path d="M0 0 C0.89267578 0.00322266 1.78535156 0.00644531 2.70507812 0.00976562 C4.09823242 0.02233398 4.09823242 0.02233398 5.51953125 0.03515625 C6.45990234 0.03966797 7.40027344 0.04417969 8.36914062 0.04882812 C10.69016837 0.06060999 13.01106769 0.07706067 15.33203125 0.09765625 C16.48978185 3.57090806 16.40069777 6.45833073 16.33203125 10.09765625 C15.67203125 10.09765625 15.01203125 10.09765625 14.33203125 10.09765625 C14.00203125 7.45765625 13.67203125 4.81765625 13.33203125 2.09765625 C7.72203125 1.76765625 2.11203125 1.43765625 -3.66796875 1.09765625 C-3.66796875 4.06765625 -3.66796875 7.03765625 -3.66796875 10.09765625 C-4.32796875 9.76765625 -4.98796875 9.43765625 -5.66796875 9.09765625 C-5.33796875 6.78765625 -5.00796875 4.47765625 -4.66796875 2.09765625 C-5.65796875 1.76765625 -6.64796875 1.43765625 -7.66796875 1.09765625 C-4.78531726 0.13677242 -2.99134604 -0.01905316 0 0 Z " fill="#5C5D5F" transform="translate(927.66796875,469.90234375)"/>
<path d="M0 0 C6.6 0 13.2 0 20 0 C20.33 2.64 20.66 5.28 21 8 C22.32 7.34 23.64 6.68 25 6 C23.38405168 8.04119788 21.7143618 10.04072937 20 12 C19.34 12 18.68 12 18 12 C18 8.37 18 4.74 18 1 C12.06 1 6.12 1 0 1 C0 0.67 0 0.34 0 0 Z " fill="#616364" transform="translate(321,470)"/>
<path d="M0 0 C0.33 0.66 0.66 1.32 1 2 C0.46079913 3.43404486 -0.13042393 4.8488049 -0.75 6.25 C-1.69597001 8.61438935 -1.69597001 8.61438935 -2 11 C-0.72306619 13.70183849 0.73981986 14.95006917 3 17 C-0.5865054 15.66786942 -3.87682483 14.23083941 -7 12 C-7 11.01 -7 10.02 -7 9 C-6.34 9 -5.68 9 -5 9 C-4.731875 8.2575 -4.46375 7.515 -4.1875 6.75 C-3.05770579 4.13363446 -1.79106798 2.19812889 0 0 Z " fill="#6C6D70" transform="translate(208,523)"/>
<path d="M0 0 C1.9375 0.3125 1.9375 0.3125 4 1 C4.33 1.99 4.66 2.98 5 4 C4.34 4 3.68 4 3 4 C2.67 11.92 2.34 19.84 2 28 C1.67 28 1.34 28 1 28 C0.33566818 18.65190221 -0.1598655 9.37877608 0 0 Z " fill="#68696B" transform="translate(339,548)"/>
<path d="M0 0 C0 3.3 0 6.6 0 10 C0.66 9.67 1.32 9.34 2 9 C1.6875 10.9375 1.6875 10.9375 1 13 C0.01 13.33 -0.98 13.66 -2 14 C-2 10.04 -2 6.08 -2 2 C-8.27 2 -14.54 2 -21 2 C-21 1.67 -21 1.34 -21 1 C-18.25008168 0.83188272 -15.50007888 0.6654519 -12.75 0.5 C-11.97269531 0.45230469 -11.19539062 0.40460938 -10.39453125 0.35546875 C-9.26337891 0.28779297 -9.26337891 0.28779297 -8.109375 0.21875 C-7.41811523 0.17685547 -6.72685547 0.13496094 -6.01464844 0.09179688 C-4.01161035 0.00052902 -2.0051163 0 0 0 Z " fill="#6A6A6D" transform="translate(775,470)"/>
<path d="M0 0 C1.98 1.65 3.96 3.3 6 5 C3 5 3 5 1.0234375 4.3515625 C-1.02378387 3.77639641 -1.02378387 3.77639641 -2.7109375 4.9609375 C-3.26007812 5.42757812 -3.80921875 5.89421875 -4.375 6.375 C-7.52880647 8.83401541 -9.9413956 9.70302895 -14 10 C-12.68 9.34 -11.36 8.68 -10 8 C-10 7.34 -10 6.68 -10 6 C-8.906875 5.566875 -7.81375 5.13375 -6.6875 4.6875 C-3.90591207 3.50504359 -1.93638061 2.39199957 0 0 Z " fill="#626365" transform="translate(722,530)"/>
<path d="M0 0 C3.79598549 1.49128001 5.71720399 3.65733441 8 7 C8 7.99 8 8.98 8 10 C4.20401451 8.50871999 2.28279601 6.34266559 0 3 C0 2.01 0 1.02 0 0 Z " fill="#737578" transform="translate(500,480)"/>
<path d="M0 0 C0 0.33 0 0.66 0 1 C-6.6 1 -13.2 1 -20 1 C-12.75760694 -2.62119653 -7.49468385 -2.27517188 0 0 Z " fill="#5E5F61" transform="translate(478,469)"/>
<path d="M0 0 C6.93 0 13.86 0 21 0 C20.67 0.99 20.34 1.98 20 3 C19.01 3.33 18.02 3.66 17 4 C16.67 3.34 16.34 2.68 16 2 C13.28553021 1.68758545 10.66090639 1.48663408 7.9375 1.375 C6.79958008 1.31699219 6.79958008 1.31699219 5.63867188 1.2578125 C3.75952805 1.16326438 1.87979664 1.08053244 0 1 C0 0.67 0 0.34 0 0 Z " fill="#8C8D8F" transform="translate(527,556)"/>
<path d="M0 0 C3.59634744 3.49359465 6.83451967 7.11098131 10 11 C9.67 11.66 9.34 12.32 9 13 C5.60060256 11.59335278 3.88430369 10.16905621 2 7 C1.26739841 4.68652128 0.588562 2.354248 0 0 Z " fill="#66676A" transform="translate(148,533)"/>
<path d="M0 0 C0.33 0 0.66 0 1 0 C1 3.3 1 6.6 1 10 C1.66 10 2.32 10 3 10 C3.33 11.98 3.66 13.96 4 16 C2.66666667 16 1.33333333 16 0 16 C0 10.72 0 5.44 0 0 Z " fill="#636467" transform="translate(420,508)"/>
<path d="M0 0 C6.27 0 12.54 0 19 0 C14.73268986 2.13365507 12.65024509 2.08454991 8 2 C7.01 2.33 6.02 2.66 5 3 C2.3125 2.5625 2.3125 2.5625 0 2 C0 1.34 0 0.68 0 0 Z " fill="#5B5B5E" transform="translate(625,489)"/>
<path d="M0 0 C1.32 0.33 2.64 0.66 4 1 C0.7 3.64 -2.6 6.28 -6 9 C-6 5.51876869 -5.58848696 5.13479364 -3.25 2.75 C-2.73953125 2.20859375 -2.2290625 1.6671875 -1.703125 1.109375 C-0.86007812 0.56023437 -0.86007812 0.56023437 0 0 Z " fill="#8D8F93" transform="translate(867,478)"/>
<path d="M0 0 C0.99 0.33 1.98 0.66 3 1 C2.67 6.94 2.34 12.88 2 19 C1.67 19 1.34 19 1 19 C0.67 12.73 0.34 6.46 0 0 Z " fill="#757578" transform="translate(800,468)"/>
<path d="M0 0 C0.84304688 0.42925781 0.84304688 0.42925781 1.703125 0.8671875 C4.02870923 2.01415931 6.37770201 3.07839794 8.75 4.125 C9.54921875 4.47820313 10.3484375 4.83140625 11.171875 5.1953125 C11.77515625 5.46085938 12.3784375 5.72640625 13 6 C10.34501768 7.0169313 9.30844625 7.13022151 6.640625 6.00390625 C5.85171875 5.52824219 5.0628125 5.05257812 4.25 4.5625 C3.45078125 4.08941406 2.6515625 3.61632812 1.828125 3.12890625 C1.22484375 2.75636719 0.6215625 2.38382813 0 2 C0 1.34 0 0.68 0 0 Z " fill="#555759" transform="translate(879,533)"/>
<path d="M0 0 C2.97 0.495 2.97 0.495 6 1 C1.89457734 3.29903669 -2.69099505 5.35523153 -7.4375 4.625 C-7.953125 4.41875 -8.46875 4.2125 -9 4 C-5.62902617 2.50178941 -3.79557881 2 0 2 C0 1.34 0 0.68 0 0 Z " fill="#5E5F61" transform="translate(148,460)"/>
<path d="M0 0 C0.99 0.33 1.98 0.66 3 1 C3 3.97 3 6.94 3 10 C2.34 10 1.68 10 1 10 C0.67 6.7 0.34 3.4 0 0 Z " fill="#636567" transform="translate(941,470)"/>
<path d="M0 0 C2.31 0 4.62 0 7 0 C7 0.33 7 0.66 7 1 C4.69 1 2.38 1 0 1 C0 0.67 0 0.34 0 0 Z " fill="#99999B" transform="translate(529,468)"/>
<path d="M0 0 C0.99 0.495 0.99 0.495 2 1 C1.67 1.99 1.34 2.98 1 4 C0.67 2.68 0.34 1.36 0 0 Z " fill="#96979A" transform="translate(849,528)"/>
<path d="M0 0 C1 4 1 4 1 4 Z " fill="#98999C" transform="translate(848,508)"/>
<path d="M0 0 C1 4 1 4 1 4 Z " fill="#959699" transform="translate(804,472)"/>
<path d="M0 0 C0.66 0 1.32 0 2 0 C1.67 0.66 1.34 1.32 1 2 C0.67 1.34 0.34 0.68 0 0 Z " fill="#97989B" transform="translate(873,557)"/>
<path d="" fill="#969799" transform="translate(0,0)"/>
<path d="M0 0 C3 1 3 1 3 1 Z " fill="#939497" transform="translate(714,501)"/>
<path d="M0 0 C3 1 3 1 3 1 Z " fill="#939496" transform="translate(589,492)"/>
<path d="" fill="#959597" transform="translate(0,0)"/>
<path d="" fill="#959699" transform="translate(0,0)"/>
<path d="" fill="#969699" transform="translate(0,0)"/>
<path d="M0 0 C3 1 3 1 3 1 Z " fill="#989A9A" transform="translate(821,468)"/>
<path d="M0 0 C3 1 3 1 3 1 Z " fill="#949698" transform="translate(644,468)"/>
<path d="M0 0 C3 1 3 1 3 1 Z " fill="#999A9C" transform="translate(596,468)"/>
<path d="M0 0 C3 1 3 1 3 1 Z " fill="#9B9C9F" transform="translate(456,467)"/>
<path d="" fill="#969698" transform="translate(0,0)"/>
<path d="" fill="#9A989B" transform="translate(0,0)"/>
<path d="M0 0 C2 1 2 1 2 1 Z " fill="#969698" transform="translate(756,558)"/>
<path d="M0 0 C2 1 2 1 2 1 Z " fill="#949498" transform="translate(717,558)"/>
<path d="M0 0 C2 1 2 1 2 1 Z " fill="#95969A" transform="translate(356,536)"/>
<path d="" fill="#959698" transform="translate(0,0)"/>
<path d="" fill="#96959A" transform="translate(0,0)"/>
<path d="" fill="#99999C" transform="translate(0,0)"/>
<path d="" fill="#96979A" transform="translate(0,0)"/>
<path d="" fill="#949498" transform="translate(0,0)"/>
<path d="" fill="#989A9B" transform="translate(0,0)"/>
<path d="" fill="#98989B" transform="translate(0,0)"/>
<path d="" fill="#97989A" transform="translate(0,0)"/>
<path d="" fill="#969799" transform="translate(0,0)"/>
<path d="" fill="#959698" transform="translate(0,0)"/>
<path d="" fill="#959596" transform="translate(0,0)"/>
<path d="" fill="#969799" transform="translate(0,0)"/>
<path d="M0 0 C2 1 2 1 2 1 Z " fill="#979698" transform="translate(792,493)"/>
<path d="M0 0 C2 1 2 1 2 1 Z " fill="#979799" transform="translate(904,492)"/>
<path d="M0 0 C2 1 2 1 2 1 Z " fill="#959598" transform="translate(372,492)"/>
<path d="" fill="#97989C" transform="translate(0,0)"/>
<path d="M0 0 C2 1 2 1 2 1 Z " fill="#9A9A9B" transform="translate(770,468)"/>
<path d="M0 0 C2 1 2 1 2 1 Z " fill="#98979A" transform="translate(758,468)"/>
<path d="" fill="#949497" transform="translate(0,0)"/>
<path d="M0 0 C2 1 2 1 2 1 Z " fill="#97989C" transform="translate(543,468)"/>
<path d="M0 0 C2 1 2 1 2 1 Z " fill="#9B9A9D" transform="translate(540,468)"/>
<path d="M0 0 C2 1 2 1 2 1 Z " fill="#99999D" transform="translate(326,468)"/>
<path d="M0 0 C2 1 2 1 2 1 Z " fill="#9C9C9F" transform="translate(689,467)"/>
<path d="M0 0 C2 1 2 1 2 1 Z " fill="#97979A" transform="translate(211,467)"/>
<path d="M0 0 C2 1 2 1 2 1 Z " fill="#959699" transform="translate(189,462)"/>
<path d="" fill="#858586" transform="translate(0,0)"/>
<path d="" fill="#808180" transform="translate(0,0)"/>
<path d="" fill="#7D7D7D" transform="translate(0,0)"/>
<path d="" fill="#8A8988" transform="translate(0,0)"/>
<path d="" fill="#888989" transform="translate(0,0)"/>
<path d="" fill="#898A8A" transform="translate(0,0)"/>
<path d="" fill="#818382" transform="translate(0,0)"/>
<path d="" fill="#858484" transform="translate(0,0)"/>
<path d="" fill="#8B8B8C" transform="translate(0,0)"/>
<path d="" fill="#868786" transform="translate(0,0)"/>
<path d="" fill="#959493" transform="translate(0,0)"/>
<path d="" fill="#999A9A" transform="translate(0,0)"/>
<path d="" fill="#9B9C99" transform="translate(0,0)"/>
<path d="" fill="#9A9C9B" transform="translate(0,0)"/>
<path d="" fill="#9F9F9F" transform="translate(0,0)"/>
<path d="" fill="#A0A1A0" transform="translate(0,0)"/>
<path d="" fill="#9C9D9E" transform="translate(0,0)"/>
<path d="" fill="#A2A2A3" transform="translate(0,0)"/>
<path d="" fill="#9FA0A2" transform="translate(0,0)"/>
<path d="" fill="#97989A" transform="translate(0,0)"/>
<path d="" fill="#9D9EA1" transform="translate(0,0)"/>
<path d="" fill="#939296" transform="translate(0,0)"/>
<path d="" fill="#959499" transform="translate(0,0)"/>
<path d="" fill="#929296" transform="translate(0,0)"/>
<path d="" fill="#9D9D9E" transform="translate(0,0)"/>
<path d="" fill="#929595" transform="translate(0,0)"/>
<path d="" fill="#999799" transform="translate(0,0)"/>
<path d="" fill="#9B999B" transform="translate(0,0)"/>
<path d="" fill="#969797" transform="translate(0,0)"/>
<path d="" fill="#919193" transform="translate(0,0)"/>
<path d="" fill="#989899" transform="translate(0,0)"/>
<path d="" fill="#959798" transform="translate(0,0)"/>
<path d="" fill="#97979A" transform="translate(0,0)"/>
<path d="" fill="#999898" transform="translate(0,0)"/>
<path d="" fill="#959898" transform="translate(0,0)"/>
<path d="" fill="#969799" transform="translate(0,0)"/>
<path d="" fill="#96989A" transform="translate(0,0)"/>
<path d="" fill="#9A9A9A" transform="translate(0,0)"/>
<path d="" fill="#919294" transform="translate(0,0)"/>
<path d="" fill="#97999B" transform="translate(0,0)"/>
<path d="" fill="#97999C" transform="translate(0,0)"/>
<path d="" fill="#97979A" transform="translate(0,0)"/>
<path d="" fill="#959598" transform="translate(0,0)"/>
<path d="" fill="#979697" transform="translate(0,0)"/>
<path d="" fill="#96979A" transform="translate(0,0)"/>
<path d="" fill="#99969A" transform="translate(0,0)"/>
<path d="" fill="#979999" transform="translate(0,0)"/>
<path d="" fill="#97989B" transform="translate(0,0)"/>
<path d="" fill="#98979B" transform="translate(0,0)"/>
<path d="" fill="#939495" transform="translate(0,0)"/>
<path d="" fill="#989A9C" transform="translate(0,0)"/>
<path d="" fill="#97989B" transform="translate(0,0)"/>
<path d="" fill="#97979C" transform="translate(0,0)"/>
<path d="" fill="#949497" transform="translate(0,0)"/>
<path d="" fill="#959698" transform="translate(0,0)"/>
<path d="" fill="#99999C" transform="translate(0,0)"/>
<path d="" fill="#98959B" transform="translate(0,0)"/>
<path d="" fill="#989699" transform="translate(0,0)"/>
<path d="" fill="#96969A" transform="translate(0,0)"/>
<path d="" fill="#9B9B9C" transform="translate(0,0)"/>
<path d="" fill="#939497" transform="translate(0,0)"/>
<path d="" fill="#959497" transform="translate(0,0)"/>
<path d="" fill="#959699" transform="translate(0,0)"/>
<path d="" fill="#99989A" transform="translate(0,0)"/>
<path d="" fill="#9C9CA0" transform="translate(0,0)"/>
<path d="" fill="#969799" transform="translate(0,0)"/>
<path d="" fill="#95979A" transform="translate(0,0)"/>
<path d="" fill="#94959A" transform="translate(0,0)"/>
<path d="" fill="#939295" transform="translate(0,0)"/>
<path d="" fill="#919397" transform="translate(0,0)"/>
<path d="" fill="#969697" transform="translate(0,0)"/>
<path d="" fill="#98999B" transform="translate(0,0)"/>
<path d="" fill="#919495" transform="translate(0,0)"/>
<path d="" fill="#959597" transform="translate(0,0)"/>
<path d="" fill="#969698" transform="translate(0,0)"/>
<path d="" fill="#959596" transform="translate(0,0)"/>
<path d="" fill="#8F9092" transform="translate(0,0)"/>
<path d="" fill="#989A9C" transform="translate(0,0)"/>
<path d="" fill="#959597" transform="translate(0,0)"/>
<path d="" fill="#939398" transform="translate(0,0)"/>
<path d="" fill="#98969B" transform="translate(0,0)"/>
<path d="" fill="#99999C" transform="translate(0,0)"/>
<path d="" fill="#949497" transform="translate(0,0)"/>
<path d="" fill="#97989B" transform="translate(0,0)"/>
<path d="" fill="#959499" transform="translate(0,0)"/>
<path d="" fill="#969899" transform="translate(0,0)"/>
<path d="" fill="#949499" transform="translate(0,0)"/>
<path d="" fill="#98979A" transform="translate(0,0)"/>
<path d="" fill="#989A9C" transform="translate(0,0)"/>
<path d="" fill="#9B9D9D" transform="translate(0,0)"/>
<path d="" fill="#9E9E9F" transform="translate(0,0)"/>
<path d="" fill="#97979A" transform="translate(0,0)"/>
<path d="" fill="#929496" transform="translate(0,0)"/>
<path d="" fill="#9A999C" transform="translate(0,0)"/>
<path d="" fill="#969597" transform="translate(0,0)"/>
<path d="" fill="#969799" transform="translate(0,0)"/>
<path d="" fill="#969699" transform="translate(0,0)"/>
<path d="" fill="#989899" transform="translate(0,0)"/>
<path d="" fill="#98999C" transform="translate(0,0)"/>
<path d="" fill="#9A9D9E" transform="translate(0,0)"/>
<path d="" fill="#97989B" transform="translate(0,0)"/>
<path d="" fill="#939495" transform="translate(0,0)"/>
<path d="" fill="#9A9C9F" transform="translate(0,0)"/>
<path d="" fill="#97979A" transform="translate(0,0)"/>
<path d="" fill="#949399" transform="translate(0,0)"/>
<path d="" fill="#959697" transform="translate(0,0)"/>
<path d="" fill="#949398" transform="translate(0,0)"/>
<path d="" fill="#949698" transform="translate(0,0)"/>
<path d="" fill="#96999C" transform="translate(0,0)"/>
<path d="" fill="#9A9C9E" transform="translate(0,0)"/>
<path d="" fill="#999A9E" transform="translate(0,0)"/>
<path d="" fill="#9A9B9D" transform="translate(0,0)"/>
<path d="" fill="#959699" transform="translate(0,0)"/>
<path d="" fill="#97989A" transform="translate(0,0)"/>
<path d="" fill="#949598" transform="translate(0,0)"/>
<path d="" fill="#9A9B9E" transform="translate(0,0)"/>
<path d="" fill="#979699" transform="translate(0,0)"/>
<path d="" fill="#98989B" transform="translate(0,0)"/>
<path d="" fill="#969699" transform="translate(0,0)"/>
<path d="" fill="#96979B" transform="translate(0,0)"/>
<path d="" fill="#969797" transform="translate(0,0)"/>
<path d="" fill="#8F9194" transform="translate(0,0)"/>
<path d="" fill="#959497" transform="translate(0,0)"/>
<path d="" fill="#919695" transform="translate(0,0)"/>
<path d="" fill="#989898" transform="translate(0,0)"/>
<path d="" fill="#949597" transform="translate(0,0)"/>
<path d="" fill="#969898" transform="translate(0,0)"/>
<path d="" fill="#98979A" transform="translate(0,0)"/>
<path d="" fill="#939497" transform="translate(0,0)"/>
<path d="" fill="#979497" transform="translate(0,0)"/>
<path d="" fill="#98979A" transform="translate(0,0)"/>
<path d="" fill="#96989A" transform="translate(0,0)"/>
<path d="" fill="#969798" transform="translate(0,0)"/>
<path d="" fill="#979899" transform="translate(0,0)"/>
<path d="" fill="#979599" transform="translate(0,0)"/>
<path d="" fill="#979698" transform="translate(0,0)"/>
<path d="" fill="#999699" transform="translate(0,0)"/>
<path d="" fill="#99999B" transform="translate(0,0)"/>
<path d="" fill="#959598" transform="translate(0,0)"/>
<path d="" fill="#969898" transform="translate(0,0)"/>
<path d="" fill="#98989A" transform="translate(0,0)"/>
<path d="" fill="#959698" transform="translate(0,0)"/>
<path d="" fill="#969699" transform="translate(0,0)"/>
<path d="" fill="#989699" transform="translate(0,0)"/>
<path d="" fill="#939699" transform="translate(0,0)"/>
<path d="" fill="#939397" transform="translate(0,0)"/>
<path d="" fill="#96979B" transform="translate(0,0)"/>
<path d="" fill="#949697" transform="translate(0,0)"/>
<path d="" fill="#95989A" transform="translate(0,0)"/>
<path d="" fill="#929395" transform="translate(0,0)"/>
<path d="" fill="#969597" transform="translate(0,0)"/>
<path d="" fill="#97969B" transform="translate(0,0)"/>
<path d="" fill="#97989B" transform="translate(0,0)"/>
<path d="" fill="#9A999B" transform="translate(0,0)"/>
<path d="" fill="#999A9B" transform="translate(0,0)"/>
<path d="" fill="#96979A" transform="translate(0,0)"/>
<path d="" fill="#949799" transform="translate(0,0)"/>
<path d="" fill="#97979B" transform="translate(0,0)"/>
<path d="" fill="#999B9C" transform="translate(0,0)"/>
<path d="" fill="#96969C" transform="translate(0,0)"/>
<path d="" fill="#979A9A" transform="translate(0,0)"/>
<path d="" fill="#97999C" transform="translate(0,0)"/>
<path d="" fill="#98999C" transform="translate(0,0)"/>
<path d="" fill="#96989C" transform="translate(0,0)"/>
<path d="" fill="#99999C" transform="translate(0,0)"/>
<path d="" fill="#99979A" transform="translate(0,0)"/>
<path d="" fill="#999A9D" transform="translate(0,0)"/>
<path d="" fill="#9A9B9E" transform="translate(0,0)"/>
<path d="" fill="#9C9A9D" transform="translate(0,0)"/>
<path d="" fill="#9A9A9B" transform="translate(0,0)"/>
<path d="" fill="#939597" transform="translate(0,0)"/>
<path d="" fill="#96989A" transform="translate(0,0)"/>
<path d="" fill="#969599" transform="translate(0,0)"/>
<path d="" fill="#98989C" transform="translate(0,0)"/>
<path d="" fill="#99999E" transform="translate(0,0)"/>
<path d="" fill="#96969A" transform="translate(0,0)"/>
<path d="" fill="#97959A" transform="translate(0,0)"/>
<path d="" fill="#98989A" transform="translate(0,0)"/>
<path d="" fill="#97989A" transform="translate(0,0)"/>
<path d="" fill="#98999B" transform="translate(0,0)"/>
<path d="" fill="#9E9FA1" transform="translate(0,0)"/>
<path d="" fill="#9C9B9F" transform="translate(0,0)"/>
<path d="" fill="#989A9C" transform="translate(0,0)"/>
<path d="" fill="#97999B" transform="translate(0,0)"/>
<path d="" fill="#989799" transform="translate(0,0)"/>
<path d="" fill="#97979B" transform="translate(0,0)"/>
<path d="" fill="#95979A" transform="translate(0,0)"/>
<path d="" fill="#98979A" transform="translate(0,0)"/>
<path d="" fill="#98989A" transform="translate(0,0)"/>
<path d="" fill="#98979A" transform="translate(0,0)"/>
<path d="" fill="#999C9D" transform="translate(0,0)"/>
<path d="" fill="#98999B" transform="translate(0,0)"/>
<path d="" fill="#9B9C9D" transform="translate(0,0)"/>
<path d="" fill="#989B9C" transform="translate(0,0)"/>
<path d="" fill="#97979A" transform="translate(0,0)"/>
<path d="" fill="#999A9D" transform="translate(0,0)"/>
<path d="" fill="#A3A4A6" transform="translate(0,0)"/>
<path d="" fill="#9D9F9F" transform="translate(0,0)"/>
<path d="" fill="#A3A4A5" transform="translate(0,0)"/>
<path d="" fill="#A5A6A6" transform="translate(0,0)"/>
<path d="" fill="#919091" transform="translate(0,0)"/>
<path d="" fill="#979996" transform="translate(0,0)"/>
<path d="" fill="#969798" transform="translate(0,0)"/>
<path d="" fill="#848584" transform="translate(0,0)"/>
<path d="" fill="#8B8D8B" transform="translate(0,0)"/>
<path d="" fill="#8F8F8F" transform="translate(0,0)"/>
<path d="" fill="#8F9190" transform="translate(0,0)"/>
<path d="" fill="#909091" transform="translate(0,0)"/>
<path d="" fill="#8B8D8C" transform="translate(0,0)"/>
<path d="" fill="#8F8E8E" transform="translate(0,0)"/>
<path d="" fill="#919190" transform="translate(0,0)"/>
</svg>
