<?xml version="1.0" encoding="utf-8"?>
<!-- Generator: Adobe Illustrator 25.1.0, SVG Export Plug-In . SVG Version: 6.00 Build 0)  -->
<svg version="1.1" id="Layer_1" xmlns="http://www.w3.org/2000/svg" xmlns:xlink="http://www.w3.org/1999/xlink" x="0px" y="0px"
	 viewBox="0 0 155 40" style="enable-background:new 0 0 155 40;" xml:space="preserve">
<style type="text/css">
	.st0{fill:#3290FF;}
	.st1{fill:#1D1D1B;}
</style>
<g>
	<path class="st0" d="M33.5,10.9c-0.1-3.7-4.7-4.9-7.4-6c-5.9-1.7-12.1-1.7-18,0C5.4,6,0.8,7.1,0.7,10.8c-0.2,8.2,3.3,16,9.5,21.6
		c4.3,3.5,6.5,6.1,11.5,1.8c0.5-0.3,0.5-1,0-1.4c-2.5-2-6.6-4.7-8.6-7.1c-2.9-3.7-5.2-7.8-5.4-12.6c-0.1-2.3,7.7-2.8,9.4-2.9
		c1.7,0,9.5,0.6,9.4,2.9c-0.3,3.9-1.8,7.7-4.2,10.8c-0.3,0.4-0.2,0.9,0.2,1.2l4.1,3.2c1.3,0.8,1.9-1.4,2.5-2.1
		C32.2,21.4,33.7,16.5,33.5,10.9z"/>
	<g>
		<path class="st1" d="M153.5,12.7h-1.9c-0.4,0-0.8,0.4-0.8,0.8v0c-0.4-0.3-0.9-0.5-1.4-0.7c-1-0.4-2-0.6-3.1-0.6
			c-0.1,0-0.2,0-0.2,0c-0.1,0-0.1,0-0.2,0c-1,0-2,0.2-2.8,0.6c-0.8,0.3-1.5,0.8-2.1,1.4c-0.1,0.1-0.2,0.1-0.2,0.2
			c-0.7,0.7-1.3,1.5-1.7,2.4c-0.4,0.9-0.6,2-0.6,3.1c0,1.1,0.2,2.1,0.6,3.1c0.4,0.9,1,1.8,1.7,2.4c0.1,0.1,0.2,0.1,0.2,0.2
			c0.6,0.6,1.3,1.1,2.1,1.4c0.9,0.4,1.8,0.6,2.8,0.6c0.1,0,0.1,0,0.2,0c0.1,0,0.2,0,0.2,0c1.1,0,2.1-0.2,3.1-0.6
			c0.5-0.2,0.9-0.4,1.4-0.7v0c0,0.5,0.4,0.8,0.8,0.8h1.9c0.4,0,0.8-0.4,0.8-0.8V13.5C154.3,13.1,153.9,12.7,153.5,12.7z M150.3,21.7
			c-0.2,0.5-0.5,1-0.9,1.4c-0.4,0.4-0.8,0.7-1.4,0.9c-0.5,0.2-1.1,0.3-1.7,0.3c-0.6,0-1.1-0.1-1.6-0.3c-0.5-0.2-1-0.5-1.3-0.9
			c-0.4-0.4-0.7-0.8-0.9-1.4c-0.2-0.5-0.3-1.1-0.3-1.7c0-0.6,0.1-1.1,0.3-1.7c0.2-0.5,0.5-1,0.9-1.4c0.4-0.4,0.8-0.7,1.3-0.9
			c0.5-0.2,1.1-0.3,1.6-0.3c0.6,0,1.2,0.1,1.7,0.3c0.5,0.2,1,0.5,1.4,0.9c0.4,0.4,0.7,0.8,0.9,1.4c0.2,0.5,0.3,1.1,0.3,1.7
			C150.6,20.6,150.5,21.1,150.3,21.7z"/>
		<path class="st1" d="M59.8,16.9c-0.4-0.9-1-1.7-1.7-2.4c-0.7-0.7-1.6-1.2-2.5-1.6c-1-0.4-2-0.6-3.1-0.6c-0.1,0-0.1,0-0.2,0
			c-0.1,0-0.1,0-0.2,0c-0.6,0-1.2,0.1-1.7,0.2c-0.2,0.1-0.4,0.1-0.5,0.2c-0.2,0.1-0.3,0.1-0.5,0.2c-1,0.4-1.8,0.9-2.5,1.6v-1
			c0-0.4-0.4-0.8-0.8-0.8h-1.6c-0.4,0-0.8,0.4-0.8,0.8v17.2c0,0.4,0.4,0.8,0.8,0.8h1.9c0.4,0,0.8-0.4,0.8-0.8v-5
			c0.6,0.6,1.4,1.1,2.2,1.4c0.1,0,0.2,0.1,0.3,0.1c0.7,0.3,1.5,0.5,2.4,0.5c0.1,0,0.2,0,0.2,0c0.1,0,0.1,0,0.2,0
			c1.1,0,2.1-0.2,3.1-0.6c1-0.4,1.8-0.9,2.5-1.6c0.7-0.7,1.3-1.5,1.7-2.4c0.4-0.9,0.6-2,0.6-3.1C60.5,18.9,60.2,17.9,59.8,16.9z
			 M56.6,21.7c-0.2,0.5-0.5,1-0.9,1.4c-0.4,0.4-0.8,0.7-1.4,0.9c-0.5,0.2-1.1,0.3-1.7,0.3c-0.6,0-1.1-0.1-1.6-0.3
			c-0.5-0.2-1-0.5-1.3-0.9c-0.4-0.4-0.7-0.8-0.9-1.4c-0.2-0.5-0.3-1.1-0.3-1.7c0-0.6,0.1-1.1,0.3-1.7c0.2-0.5,0.5-1,0.9-1.4
			c0.4-0.4,0.8-0.7,1.3-0.9c0.5-0.2,1.1-0.3,1.6-0.3c0.6,0,1.2,0.1,1.7,0.3c0.5,0.2,1,0.5,1.4,0.9c0.4,0.4,0.7,0.8,0.9,1.4
			c0.2,0.5,0.3,1.1,0.3,1.7C56.9,20.6,56.8,21.1,56.6,21.7z"/>
		<g>
			<path class="st1" d="M76.1,14.5c-0.7-0.7-1.6-1.2-2.5-1.6c-1-0.4-2-0.6-3.1-0.6s-2.1,0.2-3.1,0.6c-1,0.4-1.8,0.9-2.5,1.6
				c-0.7,0.7-1.3,1.5-1.7,2.4c-0.4,0.9-0.6,2-0.6,3.1c0,1.1,0.2,2.1,0.6,3.1c0.4,0.9,1,1.8,1.7,2.4c0.7,0.7,1.5,1.2,2.5,1.6
				c1,0.4,2,0.6,3.1,0.6s2.1-0.2,3.1-0.6c1-0.4,1.8-0.9,2.5-1.6c0.7-0.7,1.3-1.5,1.7-2.4c0.4-0.9,0.6-2,0.6-3.1
				c0-1.1-0.2-2.1-0.6-3.1C77.4,16,76.8,15.2,76.1,14.5z M74.5,21.7c-0.2,0.5-0.5,1-0.9,1.4c-0.4,0.4-0.8,0.7-1.4,0.9
				c-0.5,0.2-1.1,0.3-1.7,0.3c-0.6,0-1.1-0.1-1.6-0.3c-0.5-0.2-1-0.5-1.3-0.9c-0.4-0.4-0.7-0.8-0.9-1.4c-0.2-0.5-0.3-1.1-0.3-1.7
				c0-0.6,0.1-1.1,0.3-1.7c0.2-0.5,0.5-1,0.9-1.4c0.4-0.4,0.8-0.7,1.3-0.9c0.5-0.2,1.1-0.3,1.6-0.3c0.6,0,1.2,0.1,1.7,0.3
				c0.5,0.2,1,0.5,1.4,0.9c0.4,0.4,0.7,0.8,0.9,1.4c0.2,0.5,0.3,1.1,0.3,1.7C74.8,20.6,74.7,21.1,74.5,21.7z"/>
			<path class="st1" d="M91,12.9c-0.3-0.1-0.6-0.2-0.9-0.3c-0.6-0.2-1.2-0.3-1.9-0.3c-0.5,0-0.9,0.1-1.3,0.2
				c-0.4,0.1-0.8,0.3-1.1,0.5c-0.3,0.2-0.6,0.5-0.9,0.8c-0.3,0.3-0.5,0.6-0.7,0.9v-1.2c0-0.4-0.4-0.8-0.8-0.8h-1.6
				c-0.4,0-0.8,0.4-0.8,0.8v12.9c0,0.4,0.4,0.8,0.8,0.8h1.9c0.4,0,0.8-0.4,0.8-0.8v-7c0-0.5,0.1-1,0.3-1.5c0.2-0.5,0.5-0.8,0.8-1.2
				c0.3-0.3,0.7-0.6,1.2-0.8c0.5-0.2,0.9-0.3,1.5-0.3c0.5,0,0.9,0.1,1.3,0.2c0.4,0.1,0.8,0,0.9-0.4l0.9-1.6
				C91.6,13.6,91.4,13,91,12.9z"/>
			<path class="st1" d="M99.7,23.9h-0.9c-0.2,0-0.4-0.1-0.6-0.3C98,23.4,98,23.2,98,23v-6.3c0-0.4,0.4-0.8,0.8-0.8h0.5
				c0.4,0,0.8-0.4,0.8-0.8v-1.5c0-0.4-0.4-0.8-0.8-0.8h-0.5c-0.4,0-0.8-0.4-0.8-0.8v-1.7c0-0.4-0.4-0.8-0.8-0.8h-1.9
				c-0.4,0-0.8,0.4-0.8,0.8v1.7c0,0.4-0.4,0.8-0.8,0.8h-0.5h0c-0.4,0-0.8,0.4-0.8,0.8V15c0,0.4,0.4,0.8,0.8,0.8h0h0.5
				c0.4,0,0.8,0.4,0.8,0.8V23c0,0.6,0.1,1.2,0.4,1.7c0.2,0.5,0.5,1,0.9,1.4c0.4,0.4,0.9,0.7,1.4,0.9c0.5,0.2,1.1,0.3,1.7,0.3h0.9
				c0.4,0,0.8-0.4,0.8-0.8v-1.8C100.5,24.2,100.1,23.9,99.7,23.9z"/>
			<path class="st1" d="M115.2,14.5c-0.7-0.7-1.5-1.2-2.5-1.6c-0.9-0.4-2-0.6-3-0.6c-1.1,0-2.1,0.2-3.1,0.6c-1,0.4-1.8,0.9-2.5,1.6
				c-0.7,0.7-1.3,1.5-1.7,2.4c-0.4,0.9-0.6,2-0.6,3.1s0.2,2.1,0.6,3.1c0.4,0.9,1,1.7,1.7,2.4c0.7,0.7,1.6,1.2,2.5,1.6
				c1,0.4,2,0.6,3.1,0.6c1.4,0,2.7-0.3,3.9-0.9c0.9-0.5,1.6-1.1,2.3-1.8c0.3-0.4,0.3-1-0.2-1.2l-1.3-0.9c-0.3-0.2-0.8-0.1-1,0.1
				c-0.3,0.4-0.8,0.7-1.3,0.9c-0.7,0.4-1.5,0.5-2.3,0.5c-0.9,0-1.7-0.3-2.4-0.8c-0.3-0.2-0.6-0.5-0.9-0.8c-0.4-0.5,0-1.3,0.7-1.3
				h9.8c0.2,0,0.4-0.1,0.5-0.3c0-0.1,0-0.1,0-0.2c0-0.1,0-0.2,0-0.3c0-0.3,0-0.5,0-0.8c0-1.1-0.2-2.1-0.6-3
				C116.5,16,115.9,15.2,115.2,14.5z M105.7,18.5c0.3-0.9,0.8-1.6,1.5-2.1c0.7-0.5,1.5-0.8,2.4-0.8c0.9,0,1.7,0.3,2.5,0.8
				c0.7,0.5,1.2,1.2,1.5,2.1H105.7z"/>
			<path class="st1" d="M130,12.9c-0.3-0.1-0.6-0.2-0.9-0.3c-0.6-0.2-1.2-0.3-1.9-0.3c-0.5,0-0.9,0.1-1.3,0.2
				c-0.4,0.1-0.8,0.3-1.1,0.5c-0.3,0.2-0.6,0.5-0.9,0.8c-0.3,0.3-0.5,0.6-0.7,0.9v-1.2c0-0.4-0.4-0.8-0.8-0.8h-1.6
				c-0.4,0-0.8,0.4-0.8,0.8v12.9c0,0.4,0.4,0.8,0.8,0.8h1.9c0.4,0,0.8-0.4,0.8-0.8v-7c0-0.5,0.1-1,0.3-1.5c0.2-0.5,0.5-0.8,0.8-1.2
				c0.3-0.3,0.7-0.6,1.2-0.8c0.5-0.2,0.9-0.3,1.5-0.3c0.5,0,0.9,0.1,1.3,0.2c0.4,0.1,0.8,0,0.9-0.4l0.9-1.6
				C130.6,13.6,130.4,13,130,12.9z"/>
			<path class="st1" d="M135.2,12.7h-1.9c-0.4,0-0.8,0.4-0.8,0.8v12.9c0,0.4,0.4,0.8,0.8,0.8h1.9c0.4,0,0.8-0.4,0.8-0.8V13.5
				C136,13.1,135.7,12.7,135.2,12.7z"/>
			<path class="st1" d="M134.3,11.9c0.6,0,1-0.2,1.4-0.6c0.4-0.4,0.6-0.9,0.6-1.4c0-0.6-0.2-1-0.6-1.4c-0.4-0.4-0.9-0.6-1.4-0.6
				c-0.6,0-1,0.2-1.4,0.6c-0.4,0.4-0.6,0.9-0.6,1.4c0,0.6,0.2,1,0.6,1.4C133.3,11.7,133.7,11.9,134.3,11.9z"/>
		</g>
	</g>
</g>
</svg>
